<?xml version="1.0" encoding="UTF-8"?>
<svg width="1334px" height="1221px" viewBox="0 0 1334 1221" version="1.1" xmlns="http://www.w3.org/2000/svg" xmlns:xlink="http://www.w3.org/1999/xlink">
    <title>Group 31@2x</title>
    <g id="Logos" stroke="none" stroke-width="1" fill="none" fill-rule="evenodd">
        <g id="Group-31" transform="translate(0.000000, -0.000000)" fill="#DB1024">
            <g id="Group-29" transform="translate(581.426694, 574.769069)">
                <polygon id="Rectangle" transform="translate(291.903657, 39.577745) rotate(-37.000000) translate(-291.903657, -39.577745) " points="237.559216 31.729052 346.350053 31.0493419 346.248097 47.4264385 237.45726 48.1061487"></polygon>
                <polygon id="Rectangle-Copy-9" transform="translate(305.262217, 57.536688) rotate(-37.000000) translate(-305.262217, -57.536688) " points="250.921176 49.1420916 359.712013 48.4623815 359.603259 65.9312846 250.812422 66.6109947"></polygon>
                <polygon id="Rectangle-Copy-11" transform="translate(48.946884, 95.933434) rotate(-37.000000) translate(-48.946884, -95.933434) " points="-5.39451908 87.5388402 103.397041 86.8591256 103.288288 104.328029 -5.5032727 105.007743"></polygon>
                <polygon id="Rectangle-Copy-10" transform="translate(332.305158, 123.892597) rotate(-37.000000) translate(-332.305158, -123.892597) " points="277.960717 116.043904 386.751554 115.364193 386.649598 131.74129 277.858761 132.421"></polygon>
            </g>
            <g id="Group-29-Copy" transform="translate(101.664524, 1127.806812) rotate(87.000000) translate(-101.664524, -1127.806812) translate(32.664524, 1061.306812)">
                <polygon id="Rectangle" transform="translate(48.942153, 39.758929) rotate(-37.000000) translate(-48.942153, -39.758929) " points="-5.46241781 31.634284 103.358853 31.553427 103.346724 47.8835732 -5.47454636 47.9644302"></polygon>
                <polygon id="Rectangle-Copy-9" transform="translate(62.360143, 57.592745) rotate(-37.000000) translate(-62.360143, -57.592745) " points="7.95597587 48.9237619 116.777246 48.8429049 116.764309 66.2617275 7.94303875 66.3425845"></polygon>
                <polygon id="Rectangle-Copy-11" transform="translate(76.105689, 75.861314) rotate(-37.000000) translate(-76.105689, -75.861314) " points="21.7011603 67.1923315 130.523155 67.111474 130.510217 84.5302966 21.6882232 84.6111541"></polygon>
                <polygon id="Rectangle-Copy-10" transform="translate(89.523389, 93.695348) rotate(-37.000000) translate(-89.523389, -93.695348) " points="35.1188184 85.5707036 143.940089 85.4898466 143.92796 101.819993 35.1066899 101.90085"></polygon>
            </g>
            <g id="Group-28" transform="translate(585.816210, 891.384082) rotate(66.000000) translate(-585.816210, -891.384082) translate(529.816210, 842.384082)">
                <polygon id="Rectangle-Copy-12" points="-4.25033784e-13 65.5548507 86.85987 -4.95349793e-13 97.3324471 13.919076 10.4725771 79.4739268"></polygon>
                <polygon id="Rectangle-Copy-13" points="13.7452574 83.823638 100.605127 18.2687873 111.077704 32.1878633 24.2178345 97.7427141"></polygon>
            </g>
            <g id="Group-28-Copy-7" transform="translate(639.579172, 599.644808) rotate(191.000000) translate(-639.579172, -599.644808) translate(100.079172, 93.644808)">
                <polygon id="Rectangle-Copy-12" points="-2.36468622e-11 979.554851 86.85987 914 97.3324471 927.919076 10.4725771 993.473927"></polygon>
                <polygon id="Rectangle-Copy-14" transform="translate(1012.469764, 85.760895) rotate(-132.000000) translate(-1012.469764, -85.760895) " points="963.803541 111.578782 1050.66341 46.0239312 1061.13599 59.9430072 974.276118 125.497858"></polygon>
                <polygon id="Rectangle-Copy-13" points="13.7452574 997.823638 100.605127 932.268787 111.077704 946.187863 24.2178345 1011.74271"></polygon>
                <polygon id="Rectangle-Copy-15" transform="translate(1016.848746, 63.321973) rotate(-132.000000) translate(-1016.848746, -63.321973) " points="968.182523 89.1398603 1055.04239 23.5850096 1065.51497 37.5040856 978.6551 103.058936"></polygon>
            </g>
            <g id="Group-28-Copy-5" transform="translate(103.977908, 352.194695) rotate(-24.000000) translate(-103.977908, -352.194695) translate(47.977908, 303.194695)">
                <polygon id="Rectangle-Copy-12" points="-4.25033784e-13 65.5548507 86.85987 -4.95349793e-13 97.3324471 13.919076 10.4725771 79.4739268"></polygon>
                <polygon id="Rectangle-Copy-13" points="13.7452574 83.823638 100.605127 18.2687873 111.077704 32.1878633 24.2178345 97.7427141"></polygon>
            </g>
            <g id="Group-28-Copy-3" transform="translate(1231.856299, 1159.381144) rotate(166.000000) translate(-1231.856299, -1159.381144) translate(1175.856299, 1110.381144)">
                <polygon id="Rectangle-Copy-12" points="-4.25033784e-13 65.5548507 86.85987 -4.95349793e-13 97.3324471 13.919076 10.4725771 79.4739268"></polygon>
                <polygon id="Rectangle-Copy-13" points="13.7452574 83.823638 100.605127 18.2687873 111.077704 32.1878633 24.2178345 97.7427141"></polygon>
            </g>
            <g id="Group-28-Copy-9" transform="translate(688.955795, 451.287548) rotate(74.000000) translate(-688.955795, -451.287548) translate(617.898604, 209.206032)">
                <polygon id="Rectangle-Copy-12" points="31.0366788 451.975168 117.896549 386.420317 128.369126 400.339393 41.5092559 465.894244"></polygon>
                <polygon id="Rectangle" transform="translate(39.577745, 88.526362) rotate(-127.000000) translate(-39.577745, -88.526362) " points="-14.7666949 80.677669 94.024142 79.9979589 93.9221854 96.3750555 -14.8686514 97.0547657"></polygon>
                <polygon id="Rectangle-Copy-9" transform="translate(57.536688, 75.167801) rotate(-127.000000) translate(-57.536688, -75.167801) " points="3.19564651 66.7732049 111.986483 66.0934948 111.87773 83.5623979 3.08689289 84.242108"></polygon>
                <polygon id="Rectangle-Copy-11" transform="translate(75.933434, 61.483134) rotate(-90.000000) translate(-75.933434, -61.483134) " points="27.4824671 87.4823864 113.958208 21.4671467 124.384402 35.4838826 37.9086609 101.499122"></polygon>
                <polygon id="Rectangle-Copy-10" transform="translate(93.892597, 48.124861) rotate(-90.000000) translate(-93.892597, -48.124861) " points="45.7677356 74.5619166 132.242901 8.54711595 142.017458 21.6878058 55.5422923 87.7026065"></polygon>
                <polygon id="Rectangle-Copy-13" points="44.7819362 470.243955 131.641806 404.689105 142.114383 418.608181 55.2545133 484.163031"></polygon>
            </g>
            <g id="Group-28-Copy" transform="translate(666.715394, 575.740668) rotate(-98.000000) translate(-666.715394, -575.740668) translate(597.215394, -87.759332)">
                <rect id="Rectangle" x="30.2287584" y="0.50594992" width="108.76034" height="16.3392857"></rect>
                <rect id="Rectangle-Copy-18" transform="translate(52.076930, 1292.132963) rotate(30.000000) translate(-52.076930, -1292.132963) " x="-2.30323985" y="1283.96332" width="108.76034" height="16.3392857"></rect>
            </g>
            <g id="Group-28-Copy-6" transform="translate(1063.483701, 962.466736) rotate(-46.000000) translate(-1063.483701, -962.466736) translate(1008.983701, 953.966736)">
                <rect id="Rectangle" x="0" y="0" width="108.76034" height="16.3392857"></rect>
            </g>
            <g id="Group-28-Copy-4" transform="translate(1223.183484, 802.519674) rotate(-4.000000) translate(-1223.183484, -802.519674) translate(1168.683484, 794.019674)">
                <rect id="Rectangle" x="0" y="0" width="108.76034" height="16.3392857"></rect>
            </g>
            <g id="Group-28-Copy-8" transform="translate(532.092658, 993.087530) rotate(-142.000000) translate(-532.092658, -993.087530) translate(385.592658, 841.587530)">
                <rect id="Rectangle" x="184" y="-2.5920599e-11" width="108.76034" height="16.3392857"></rect>
                <rect id="Rectangle-Copy-4" x="0.00263332912" y="285.884538" width="108.76034" height="16.3392857"></rect>
            </g>
        </g>
    </g>
</svg>