<?xml version="1.0" encoding="UTF-8"?>
<svg width="24px" height="24px" viewBox="0 0 24 24" version="1.1" xmlns="http://www.w3.org/2000/svg" xmlns:xlink="http://www.w3.org/1999/xlink">
    <title>ux/web/icon/social/medium/facebook</title>
    <g id="Symbols-desktop" stroke="none" stroke-width="1" fill="none" fill-rule="evenodd">
        <g id="web/navigation/footer-simple-compact" transform="translate(-310.000000, -119.000000)" fill="#FFFFFF">
            <g id="Group-3" transform="translate(39.999666, 59.228818)">
                <g id="Icons" transform="translate(224.000334, 55.771182)">
                    <g id="Group" transform="translate(42.000000, 0.000000)">
                        <g id="instagram" transform="translate(4.000000, 4.000000)">
                            <path d="M12,5.83575 C8.59725,5.83575 5.83575,8.5965 5.83575,12 C5.83575,15.4035 8.5965,18.16425 12,18.16425 C15.4035,18.16425 18.16425,15.4035 18.16425,12 C18.16425,8.59725 15.4035,5.83575 12,5.83575 Z M12,15.99825 C9.792,15.99825 8.00175,14.208 8.00175,12 C8.00175,9.792 9.792,8.00175 12,8.00175 C14.208,8.00175 15.99825,9.792 15.99825,12 C15.99825,14.208 14.208,15.99825 12,15.99825 Z M12.615454,-0.000550444444 C12.7119393,-0.000482333333 12.805534,-0.000396 12.896376,-0.00029025 L13.643358,0.001218 C14.776878,0.004713 15.384198,0.013383 15.931068,0.03125925 L16.255662,0.043122 C16.47219,0.05181 16.69395,0.0621 16.95075,0.07425 C18.22575,0.1305 19.09725,0.33675 19.8615,0.63225 C20.649,0.93675 21.3195,1.35 21.98475,2.01525 C22.6545,2.68125 23.0625,3.351 23.358,4.14825 C23.6535,4.90725 23.85975,5.784 23.916,7.059 C23.925375,7.272375 23.9335833,7.4615 23.9407535,7.64361458 L23.9488675,7.85989042 C23.9743081,8.57694875 23.9839598,9.29217375 23.9860448,11.1088987 L23.9860448,12.9001215 C23.98323,15.352815 23.966625,15.79845 23.916,16.95 C23.85975,18.225 23.6535,19.0965 23.358,19.86075 C23.0535,20.64825 22.64025,21.318 21.975,21.984 C21.30975,22.65 20.63925,23.0625 19.85175,23.367 C19.09275,23.6625 18.216,23.86875 16.941,23.925 C16.72775,23.934375 16.5387083,23.9425833 16.3566458,23.9497535 L16.1404182,23.9578675 C15.459322,23.9820361 14.7794893,23.9919551 13.1555213,23.9946742 L10.8354787,23.9946742 C9.21151067,23.9919551 8.531678,23.9820361 7.85058183,23.9578675 L7.63435417,23.9497535 C7.45229167,23.9425833 7.26325,23.934375 7.05,23.925 C5.775,23.86875 4.9035,23.6625 4.13925,23.367 C3.35175,23.0625 2.68125,22.64925 2.016,21.984 C1.3455,21.31875 0.93825,20.64825 0.6285,19.85625 C0.333,19.09725 0.12675,18.2205 0.0705,16.9455 C0.02175,15.83595 0.00454666667,15.38212 0.000825777778,13.1599867 L0.000825777778,10.8400027 C0.00340177778,9.30155467 0.0124397778,8.61042067 0.0339337778,7.96129867 L0.041568,7.745376 C0.04968,7.5288 0.05925,7.30695 0.0705,7.05 C0.12675,5.775 0.333,4.9035 0.6285,4.13925 C0.9375,3.35175 1.3455,2.682 2.016,2.016 C2.68125,1.3455 3.35175,0.9375 4.14375,0.6285 C4.90275,0.333 5.7795,0.12675 7.0545,0.0705 C7.353225,0.057375 7.60442,0.0465366667 7.85539042,0.0376324722 L8.07155625,0.03046575 C8.65373625,0.01257375 9.30535625,0.00426041667 10.5913229,0.00131597222 L12,8.25403114e-16 L12.00075,-0.00075 Z M13.1405293,2.16157578 L10.8586842,2.16157578 C8.67594667,2.16529667 8.24465,2.1825 7.152,2.23125 C5.98425,2.283 5.3475,2.4795 4.92525,2.64375 C4.36725,2.86425 3.969,3.1215 3.54675,3.54375 C3.12975,3.9615 2.86725,4.36425 2.65125,4.92225 C2.487,5.3445 2.2905,5.97675 2.23875,7.149 C2.229375,7.35925 2.22116667,7.545125 2.21399653,7.72373264 L2.20588247,7.93566836 C2.18044192,8.63779225 2.17079025,9.33312725 2.16870525,11.1165622 L2.16870525,12.8758162 C2.17079025,14.6587413 2.18044192,15.3521662 2.20588247,16.0549801 L2.21399653,16.2672049 C2.22116667,16.446125 2.229375,16.6325 2.23875,16.8435 C2.2905,18.0105 2.487,18.648 2.65125,19.07025 C2.87175,19.6275 3.129,20.02575 3.55125,20.448 C3.969,20.86575 4.37175,21.1275 4.92975,21.3435 C5.352,21.50775 5.98425,21.70425 7.1565,21.756 C7.36675,21.765375 7.552625,21.7735833 7.73123264,21.7807535 L7.94316836,21.7888675 C8.61018606,21.8130361 9.27107678,21.8229551 10.8645709,21.8256742 L13.1427211,21.8256742 C14.7356072,21.8229551 15.3948069,21.8130361 16.0624801,21.7888675 L16.2747049,21.7807535 C16.453625,21.7735833 16.64,21.765375 16.851,21.756 C18.018,21.70425 18.6555,21.50775 19.07775,21.3435 C19.635,21.123 20.03325,20.86575 20.4555,20.4435 C20.87325,20.0265 21.135,19.62375 21.351,19.06575 C21.51525,18.6435 21.71175,18.01125 21.7635,16.839 C21.772875,16.62875 21.7810833,16.442875 21.7882535,16.2642674 L21.7963675,16.0523316 C21.8205361,15.3853139 21.8304551,14.7244232 21.8331742,13.1309291 L21.8339515,12.3026694 L21.8339515,12.3026694 L21.834,11.99175 C21.834,11.885025 21.8339842,11.7814358 21.8339515,11.6808451 L21.8331742,10.8527789 C21.8308844,9.51140111 21.8234889,8.83213889 21.8067778,8.25236111 L21.8000662,8.03850889 C21.7988721,8.00327778 21.7976396,7.96816056 21.7963675,7.93301986 L21.7882535,7.72079514 C21.7810833,7.541875 21.772875,7.3555 21.7635,7.1445 C21.71175,5.97675 21.51525,5.34 21.351,4.91775 C21.1305,4.35975 20.87325,3.9615 20.451,3.53925 C20.034,3.12225 19.63125,2.85975 19.07325,2.64375 C18.651,2.4795 18.01875,2.283 16.8465,2.23125 C16.636375,2.221875 16.4507292,2.21366667 16.2723958,2.20649653 L16.0608072,2.19838247 C15.3949332,2.17421394 14.735497,2.16429489 13.1405293,2.16157578 Z M18.40725,4.15275 C19.20225,4.15275 19.8465,4.797 19.8465,5.592 C19.8465,6.387 19.20225,7.03125 18.40725,7.03125 C17.61225,7.03125 16.968,6.387 16.968,5.592 C16.968,4.797 17.61225,4.15275 18.40725,4.15275 Z" id="Shape"></path>
                        </g>
                    </g>
                </g>
            </g>
        </g>
    </g>
</svg>