<?xml version="1.0" encoding="UTF-8"?>
<svg width="3012px" height="2119px" viewBox="0 0 3012 2119" version="1.1" xmlns="http://www.w3.org/2000/svg" xmlns:xlink="http://www.w3.org/1999/xlink">
    <title>waves bg</title>
    <defs>
        <path d="M0,0 L3012,0 L3012,2119 L0,2119 L0,0 Z" id="path-1"></path>
    </defs>
    <g id="1.-home-" stroke="none" stroke-width="1" fill="none" fill-rule="evenodd">
        <g id="waves-bg">
            <mask id="mask-2" fill="white">
                <use xlink:href="#path-1"></use>
            </mask>
            <g id="Mask"></g>
            <g id="waves" opacity="0.801417151" mask="url(#mask-2)" fill="#BA0018">
                <g transform="translate(-1132.989496, -752.000000)">
                    <path d="M2812.43238,0.44095917 C2780.02182,10.3625405 2760.17862,39.2453662 2734.82342,60.1909268 C2705.72006,85.3255995 2677.49862,111.56267 2655.23014,144.855087 C2611.5751,210.558004 2612.01606,280.670512 2633.18214,354.090214 C2654.34822,426.627997 2685.65638,493.874271 2714.0983,562.663901 C2750.4775,651.737654 2786.19526,740.370447 2800.74694,837.160985 C2825.22022,999.874919 2709.02726,1147.59624 2555.13222,1148.25768 L2548.29734,1148.25768 L2528.67462,1148.25768 C2509.93382,1148.25768 2491.4135,1148.69864 2472.6727,1152.00583 C2427.03334,1159.9431 2399.03238,1187.28257 2387.12646,1234.24472 C2381.39398,1256.95412 2378.52774,1280.76591 2379.18918,1304.35723 C2380.29158,1365.43007 2376.54342,1425.84148 2367.50374,1486.47336 C2348.54246,1615.6744 2277.10694,1698.57472 2165.76454,1747.08023 C2097.63622,1776.40402 2026.86214,1800.21581 1959.61574,1833.50823 C1856.4311,1883.77758 1771.98726,1957.41776 1708.92998,2058.83837 C1677.40134,2110.21011 1648.29798,2163.78665 1611.91878,2212.29216 C1573.99622,2264.10486 1533.64838,2286.81426 1489.55238,2286.81426 C1458.4647,2286.81426 1425.83366,2275.34932 1390.77734,2255.0652 C1247.9063,2171.28296 1165.66726,2040.53856 1142.95782,1867.02113 C1131.27238,1777.28594 1137.88678,1689.75554 1157.5095,1602.44563 C1169.85638,1547.76669 1184.62854,1493.08775 1192.34534,1436.86546 C1201.38502,1370.72158 1196.0935,1304.79819 1182.8647,1240.19767 C1163.0215,1140.32041 1134.57958,1043.08892 1083.86918,955.117563 C1031.39494,863.839015 955.108856,808.719119 854.569976,795.269864 C822.820856,790.860272 791.292216,788.655476 759.984056,788.655476 C642.247736,788.655476 528.921016,819.081659 418.681016,869.791964 C350.111736,901.320544 283.526776,938.361115 210.988856,958.204277 C166.451896,970.992093 121.694456,978.04744 75.8346163,980.252236 C56.8733363,980.913675 38.1325363,985.323266 18.9507763,985.323266 L17.6278963,985.323266 L17.4074163,985.323266 C10.1315763,985.323266 5.28101628,989.291899 0.209976275,994.803889 L0.209976275,1232.03992 C5.50149628,1237.11095 10.7930163,1238.87479 16.3050163,1238.87479 C23.3603763,1238.87479 30.1952563,1236.22903 36.5891763,1235.34712 C176.814456,1208.44861 306.677176,1154.87207 422.649656,1065.35736 C471.816696,1027.43487 521.645176,991.055736 576.324216,962.17291 C635.853816,930.644329 699.572536,910.360207 765.937016,907.714452 C770.567096,907.273493 775.638136,907.273493 780.268216,907.273493 C870.224056,907.273493 946.730616,942.550227 998.984376,1028.31679 C1051.6791,1114.5243 1077.25478,1209.551 1080.3415,1312.07401 C1082.5463,1379.98172 1069.09702,1444.80272 1053.44294,1509.40324 C1032.9383,1594.28788 1019.48902,1680.71588 1024.1191,1768.90771 C1029.85158,1898.10875 1045.94662,2026.20739 1102.60998,2143.28205 C1129.72902,2200.60674 1165.66726,2252.19896 1204.9127,2300.04303 C1270.17478,2379.1952 1332.57062,2460.55217 1403.3447,2534.63331 C1431.78662,2564.83901 1461.99238,2593.72184 1494.8439,2618.41555 C1560.54694,2667.14154 1613.9031,2727.11199 1659.76294,2796.34258 C1712.89862,2875.05379 1771.10534,2948.69397 1837.6903,3015.71977 C1887.2983,3064.44576 1942.19782,3105.45496 1996.65638,3147.78704 C2043.17766,3183.94569 2080.43878,3228.04161 2102.04582,3285.58678 C2105.79398,3294.62644 2112.40838,3300.35891 2118.8023,3306.9733 L2389.11078,3306.9733 C2397.48902,3301.46131 2402.33958,3293.74452 2404.76486,3283.38198 C2419.31654,3223.63202 2452.8295,3176.2289 2491.4135,3132.57395 C2575.85734,3037.54725 2645.08806,2932.59896 2693.81414,2811.33519 C2723.79942,2736.37213 2756.87142,2662.29099 2807.8023,2599.45431 C2852.33926,2544.55489 2902.38822,2495.8289 2957.7287,2453.49682 C3028.2823,2399.25885 3097.07206,2343.69799 3171.37382,2295.19248 C3211.2807,2269.39637 3254.2743,2253.30136 3300.35462,2250.43513 C3303.44134,2250.21465 3306.0871,2250.21465 3308.95334,2250.21465 C3360.32518,2250.21465 3405.08262,2272.26261 3441.90278,2311.94893 C3480.04582,2352.07622 3508.70822,2400.14076 3533.62246,2449.96915 C3575.29318,2533.75139 3606.16038,2622.82515 3640.77574,2709.6941 C3662.82374,2765.69592 3686.63558,2820.15437 3715.0775,2872.18756 C3738.2279,2914.74012 3748.1495,2959.05651 3739.55078,3008.22346 C3726.54246,3082.3046 3723.45574,3157.48814 3722.7943,3232.67168 C3722.35334,3251.63292 3726.98342,3269.93273 3726.98342,3288.23253 C3726.98342,3296.39028 3731.39302,3301.68179 3736.46406,3306.9733 L3974.58246,3306.9733 C3984.50406,3301.68179 3990.89798,3293.74452 3995.30758,3282.27959 C4009.19782,3250.31005 4024.19046,3219.4429 4044.03366,3190.78056 C4096.94886,3113.17174 4170.80966,3075.91069 4257.67878,3063.34336 C4291.6327,3057.83137 4326.02758,3061.13856 4360.42246,3058.71329 C4437.1495,3052.98082 4514.53798,3056.06753 4590.82406,3039.0906 C4686.07142,3017.92456 4754.6407,2943.62294 4766.10566,2835.58795 C4772.2791,2783.1138 4774.04294,2730.1987 4765.22374,2677.72456 C4744.27814,2553.1536 4662.92102,2464.5208 4546.50758,2440.48853 C4520.27046,2434.97654 4494.25382,2432.33078 4468.67814,2432.33078 C4407.60518,2432.33078 4348.51654,2447.54388 4291.19174,2475.98574 C4236.95366,2503.10473 4186.46374,2537.49955 4134.87142,2568.80765 C4110.61862,2583.57978 4085.70438,2595.70616 4059.90822,2606.73014 C4033.00966,2618.19507 4006.55206,2623.2661 3980.53542,2623.2661 C3937.54182,2623.2661 3895.65062,2609.15541 3855.0823,2584.68218 C3799.08038,2551.16928 3757.18918,2502.66377 3721.03046,2447.3234 C3671.42246,2371.03746 3635.48422,2286.59378 3595.79782,2204.57537 C3579.92326,2171.28296 3561.18246,2140.19533 3537.15014,2112.19443 C3498.34566,2066.77563 3448.95814,2051.56254 3394.72006,2048.25535 C3387.22374,2047.81439 3380.38886,2047.59391 3373.3335,2047.59391 C3274.99942,2047.59391 3190.55558,2090.58743 3116.03334,2157.8337 C3005.79334,2257.04951 2894.67142,2355.82437 2784.6519,2455.70162 C2709.46822,2524.27077 2649.93862,2607.39157 2602.97638,2700.87492 C2569.02246,2768.56215 2535.5095,2837.1313 2481.05094,2889.38496 C2421.9623,2946.2687 2355.37734,2988.15982 2273.1383,2991.24653 L2267.40582,2991.24653 C2213.6087,2991.24653 2170.83558,2963.68658 2135.55878,2922.23642 C2112.84934,2895.55839 2093.66758,2866.01413 2075.8087,2835.36747 C2013.19238,2729.75774 1942.19782,2630.98289 1864.80934,2537.05859 C1827.32774,2491.63979 1800.42918,2439.60661 1789.84614,2379.63616 C1777.94022,2309.96461 1789.40518,2242.71834 1812.3351,2177.01542 C1855.3287,2052.22398 1944.18214,1980.12715 2057.28838,1936.91316 C2124.75526,1911.33752 2194.42694,1894.80156 2262.1143,1871.6512 C2361.99174,1837.25638 2431.00198,1765.821 2482.37382,1671.45574 C2507.9495,1624.2731 2528.67462,1574.44472 2552.92742,1526.60065 C2591.29094,1451.19663 2647.51334,1393.2105 2711.23206,1342.72067 C2782.66758,1284.95502 2851.67782,1224.32314 2912.30982,1153.99015 C2972.28038,1085.20052 3026.95942,1011.56034 3077.22886,934.392482 C3110.52134,883.682178 3138.5223,863.839015 3171.81478,863.839015 C3197.39046,863.839015 3225.83238,875.524433 3261.9911,894.265198 C3338.49766,933.510564 3390.53094,998.552041 3430.43782,1076.60181 C3471.66758,1155.75399 3509.59014,1236.22903 3539.57542,1321.33415 C3565.59206,1395.41529 3581.02566,1472.36267 3586.0967,1551.51484 C3590.06534,1621.84783 3590.5063,1691.96034 3594.03398,1762.07285 C3596.23878,1799.77485 3599.76646,1837.91782 3610.56998,1874.29695 C3631.51558,1945.73234 3681.56454,1983.43435 3747.70854,1993.57641 C3779.45766,1998.64744 3810.9863,2001.51367 3842.07398,2001.51367 C3910.86374,2001.51367 3978.11014,1987.1825 4041.3879,1948.15762 C4111.72102,1904.94362 4165.9591,1843.87077 4208.07078,1771.11251 C4267.60038,1668.80998 4301.5543,1557.46779 4311.4759,1437.30642 C4317.86982,1364.54815 4320.95654,1291.12845 4345.6503,1221.67738 C4365.71398,1164.79365 4392.39206,1113.20143 4445.30726,1083.43668 C4461.84326,1073.5151 4479.26118,1065.79831 4498.00198,1061.82968 C4504.83686,1060.5068 4511.23078,1059.84537 4517.6247,1059.84537 C4549.81478,1059.84537 4574.9495,1078.58613 4589.2807,1112.98095 C4607.58054,1157.51782 4614.41542,1204.92093 4622.3527,1252.32404 C4638.22726,1346.24835 4658.07046,1439.07025 4701.50502,1524.39585 C4734.35654,1588.33493 4772.72006,1647.20298 4820.34374,1699.67712 C4875.9047,1760.30901 4936.75718,1814.54699 4996.0663,1870.32832 C5055.5959,1926.55062 5108.73158,1989.16682 5159.66246,2054.2083 C5222.27878,2134.90382 5286.65894,2214.49695 5358.53542,2285.49138 C5398.4423,2324.73675 5439.89254,2362.43876 5481.78374,2399.25885 C5488.39814,2404.32988 5494.3511,2413.59002 5503.39078,2413.59002 C5506.03654,2413.59002 5508.6823,2412.92858 5511.76902,2411.38522 L5511.76902,1989.3873 C5492.58726,1954.11056 5463.70438,1929.41685 5433.27814,1906.92793 C5374.1895,1863.0525 5310.2503,1828.4372 5244.98822,1795.58574 C5162.30822,1753.9151 5077.86438,1715.99261 5000.4759,1663.73895 C4895.52742,1592.74452 4815.71366,1499.92262 4780.87782,1369.3987 C4770.0743,1330.15334 4762.79846,1289.80557 4762.79846,1248.79637 C4763.23942,1201.39326 4761.47558,1154.21063 4770.51526,1107.24848 C4786.16934,1024.56863 4830.26534,968.125859 4902.58278,935.935839 C4957.04134,911.683085 5014.14566,898.23383 5070.58854,881.697861 C5152.82758,857.886066 5233.74374,829.885159 5310.2503,787.553078 C5415.19878,730.007907 5471.64166,637.62696 5489.05958,515.48127 C5500.74502,431.037589 5487.29574,351.444459 5446.9479,277.363318 C5419.3879,226.873493 5376.17382,197.990668 5327.66822,175.942709 C5278.72166,153.233312 5226.68838,142.209332 5175.09606,127.878159 C5142.6855,118.838496 5110.05446,109.798833 5078.7463,96.1290992 C5043.91046,80.9160078 5017.67334,55.1198963 4995.62534,23.370836 C4989.4519,14.9926118 4983.49894,6.61438756 4975.1207,0.44095917 L4797.6343,0.44095917 C4785.5079,11.4649384 4785.94886,27.118989 4783.74406,42.1116008 C4779.33446,76.7268957 4772.72006,111.121711 4761.03462,144.193649 C4750.2311,174.399352 4730.3879,192.037719 4701.50502,199.974984 C4664.90534,210.117045 4627.8647,214.085677 4590.3831,218.274789 C4533.71974,224.448218 4476.8359,229.298769 4419.95206,234.14932 C4401.21126,235.472197 4382.47046,236.354115 4363.95014,236.354115 C4272.45094,236.354115 4185.8023,215.849514 4109.29574,151.028516 C4068.9479,116.633701 4040.06502,73.1992223 4015.59174,25.3551523 C4010.5207,15.2130914 4005.22918,5.51198963 3994.64614,0.44095917 L3809.00198,0.44095917 C3799.74182,8.59870382 3802.82854,18.079326 3806.5767,28.0009073 C3825.09702,77.608814 3848.24742,124.350486 3882.6423,163.595852 C3969.95238,263.032145 4072.91654,335.790408 4198.14918,369.082826 C4229.01638,377.24057 4260.10406,380.327285 4292.07366,381.209203 C4298.90854,381.429682 4305.52294,381.650162 4312.5783,381.650162 C4337.71302,381.650162 4362.62726,380.768244 4387.98246,380.768244 C4416.42438,380.768244 4444.8663,381.650162 4473.30822,385.398315 C4514.97894,391.351264 4553.78342,400.831886 4582.6663,437.651977 C4593.46982,451.76267 4603.39142,466.314323 4607.58054,483.95269 C4633.3767,604.114064 4615.95878,744.33908 4496.23814,828.121322 C4452.14214,858.767984 4407.60518,887.87129 4366.15494,922.707064 C4274.43526,998.552041 4219.75622,1098.42929 4199.25158,1219.91355 C4189.99142,1274.59248 4187.56614,1329.71238 4186.02278,1384.6118 C4184.47942,1459.1339 4179.62886,1533.87647 4155.59654,1604.8709 C4129.80038,1682.25924 4090.9959,1750.38743 4027.71814,1798.89294 C3988.69318,1828.87816 3945.92006,1845.63461 3900.06022,1845.63461 C3886.16998,1845.63461 3872.27974,1844.09125 3857.94854,1841.22502 C3800.40326,1828.4372 3762.92166,1789.19183 3740.87366,1733.63098 C3723.67622,1689.97602 3717.2823,1643.67531 3714.63654,1596.93364 C3706.03782,1458.0315 3689.94278,1320.23176 3664.14662,1183.53441 C3652.2407,1118.27246 3647.16966,1051.9081 3641.43718,985.323266 C3631.95654,881.697861 3602.19174,787.112119 3535.82726,707.07803 C3503.63718,668.714582 3466.59654,635.201685 3432.42214,598.602074 C3385.4599,548.332728 3355.03366,489.685159 3338.0567,421.116008 C3323.06406,363.129877 3311.15814,304.482307 3295.0631,246.496176 C3273.89702,169.328321 3244.3527,95.68814 3217.23366,20.5046014 C3213.70598,11.0239793 3207.75302,5.07103046 3200.03622,0.44095917 L2812.43238,0.44095917 Z M2813.75526,9.26014258 L3197.39046,9.26014258 C3203.34342,13.4492547 3206.8711,17.6383668 3209.0759,23.370836 C3215.46982,41.450162 3221.86374,59.0885288 3228.47814,76.7268957 C3248.98278,132.72871 3270.58982,190.273882 3286.46438,248.921452 C3296.1655,283.316267 3304.32326,318.593001 3312.48102,352.767336 C3317.99302,376.358652 3323.50502,399.949968 3329.67846,423.320804 C3347.31686,494.976669 3378.62502,554.285677 3425.80774,604.555023 C3439.03654,618.665716 3452.26534,632.114971 3465.71462,645.564226 C3487.32166,666.950745 3509.14918,688.998704 3528.99238,712.590019 C3588.52198,784.686844 3622.25542,873.760596 3632.3975,986.205185 L3634.6023,1010.01698 C3639.67334,1067.78263 3644.74438,1127.31212 3655.5479,1185.07777 C3680.24166,1315.38121 3696.55718,1450.31471 3705.59686,1597.59507 C3708.02214,1636.84044 3713.31366,1687.9917 3732.7159,1736.71769 C3757.18918,1799.11342 3799.08038,1837.0359 3855.74374,1849.82372 C3870.95686,1852.91043 3885.50854,1854.45379 3900.06022,1854.45379 C3946.36102,1854.45379 3991.11846,1838.1383 4032.78918,1805.7278 C4091.65734,1760.97045 4134.43046,1696.14945 4164.19526,1607.73714 C4189.55046,1532.5536 4193.29862,1453.40143 4194.84198,1384.83227 C4196.38534,1332.79909 4198.59014,1277.23824 4208.07078,1221.23642 C4228.13446,1101.07505 4283.25446,1002.96163 4371.66694,929.321452 C4405.62086,901.320544 4442.00006,876.406351 4477.27686,851.712638 L4501.30918,835.176669 C4651.0151,730.669345 4631.39238,553.624238 4616.17926,482.409332 C4611.54918,462.56617 4600.52518,446.47116 4589.72166,432.360467 C4557.75206,391.571743 4513.65606,382.311601 4474.6311,376.799611 C4442.88198,372.390019 4411.57382,371.94906 4387.98246,371.94906 C4375.19462,371.94906 4362.62726,372.16954 4350.28038,372.390019 C4337.71302,372.390019 4325.14566,372.390019 4312.5783,372.390019 L4292.07366,372.390019 C4256.3559,371.508101 4227.25254,367.759948 4200.35398,360.484122 C4083.72006,329.837459 3982.07878,263.473104 3889.47718,158.083863 C3859.71238,124.130006 3836.12102,81.7979261 3814.95494,24.6937135 C3811.42726,15.8745301 3810.54534,12.3468568 3812.75014,9.26014258 L3992.66182,9.26014258 C3999.27622,13.2287751 4003.02438,20.2841218 4007.87494,29.5442644 C4036.53734,85.7665587 4066.7431,126.334802 4103.34278,157.642903 C4174.11686,217.392871 4256.79686,245.173299 4363.95014,245.173299 C4381.58854,245.173299 4400.99078,244.29138 4420.83398,242.968503 C4475.07206,238.338432 4533.27878,233.487881 4591.26502,226.873493 C4629.18758,222.904861 4667.11014,218.715749 4704.15078,208.353208 C4736.56134,199.313545 4757.9479,179.470382 4769.41286,147.280363 C4779.77542,117.736099 4787.27174,84.8846403 4792.56326,43.2139987 L4793.66566,35.7176928 C4794.54758,25.1346727 4795.64998,15.8745301 4801.38246,9.26014258 L4972.03398,9.26014258 C4977.98694,14.1106935 4982.8375,20.725081 4987.90854,27.5599482 C5013.7047,65.0414776 5042.14662,89.5147116 5075.4391,104.286844 C5106.3063,117.515619 5138.93734,126.775762 5170.46598,135.594945 L5172.67078,136.256384 C5182.81286,139.122618 5192.95494,141.768373 5203.09702,144.193649 C5243.44486,154.997148 5285.33606,166.241607 5324.14054,183.879974 C5380.58342,209.676086 5416.52166,239.881789 5439.2311,281.55243 C5478.03558,353.208296 5491.70534,431.258069 5480.24038,514.158393 C5462.82246,638.06792 5405.71814,724.716397 5306.06118,779.836293 C5223.38118,825.475567 5135.18918,853.696954 5067.94278,873.319637 C5055.37542,877.06779 5042.58758,880.595463 5029.79974,884.123137 C4986.36518,896.029034 4941.60774,908.81685 4899.27558,927.998574 C4824.0919,961.070512 4777.7911,1021.04096 4761.91654,1105.48464 C4754.19974,1146.05288 4754.19974,1187.28257 4754.19974,1226.74841 L4754.19974,1248.79637 C4754.19974,1286.71886 4760.1527,1326.84614 4772.2791,1371.6035 C4804.91014,1493.30823 4877.66854,1591.20117 4995.40486,1671.01478 C5058.46214,1713.56734 5126.59046,1747.08023 5192.95494,1779.49073 C5208.8295,1787.428 5224.92454,1795.36526 5241.24006,1803.52301 C5302.31302,1834.16967 5367.5751,1869.22592 5427.98662,1914.20376 C5455.98758,1934.48788 5484.4295,1958.29968 5502.94982,1991.59209 L5502.94982,2404.77084 C5499.8631,2404.32988 5496.5559,2401.02268 5493.02822,2397.49501 C5490.82342,2395.73117 5489.28006,2393.74686 5487.51622,2392.42398 C5438.34918,2349.20998 5399.10374,2313.27181 5364.70886,2279.31795 C5296.80102,2212.07168 5236.3895,2138.65198 5166.71782,2048.91679 C5105.42438,1970.86701 5054.93446,1913.7628 5002.23974,1863.93441 L4964.0967,1828.4372 C4918.01638,1785.66416 4870.3927,1741.12728 4826.95814,1693.72417 C4782.86214,1645.21866 4744.27814,1588.55541 4709.4423,1520.6477 C4664.2439,1432.23539 4645.28262,1335.22437 4630.95142,1251.00117 L4629.18758,1239.75671 C4621.91174,1196.32223 4614.6359,1151.56487 4597.43846,1109.67375 C4581.78438,1071.75126 4553.34246,1050.8057 4517.6247,1050.8057 C4510.56934,1050.8057 4503.2935,1051.68762 4496.01766,1053.23098 C4478.15878,1057.19961 4460.74086,1064.03448 4440.89766,1075.7199 C4382.24998,1108.79183 4355.79238,1166.55749 4337.27206,1218.59067 C4315.44454,1280.10447 4310.15302,1345.14595 4305.30246,1407.98263 L4302.87718,1436.64498 C4292.95558,1556.14491 4258.5607,1667.26662 4200.57446,1766.70292 C4156.91942,1842.10693 4101.79942,1900.53402 4036.75782,1940.66131 C3979.87398,1975.71756 3916.15526,1992.69449 3842.07398,1992.69449 C3812.97062,1992.69449 3782.54438,1990.04874 3749.03142,1984.97771 C3681.78502,1974.61517 3637.9095,1936.4722 3618.94822,1871.6512 C3607.92422,1834.39015 3604.8375,1795.14478 3602.85318,1761.63189 C3601.08934,1729.00091 3599.98694,1695.92897 3599.10502,1663.07751 C3598.00262,1626.4779 3597.1207,1588.55541 3594.9159,1550.8534 C3589.84486,1471.48075 3574.19078,1393.2105 3547.95366,1318.6884 C3521.71654,1244.1663 3486.8807,1165.89605 3438.3751,1072.19222 C3392.51526,983.33895 3336.29286,922.486585 3265.95974,886.327933 C3229.80102,867.807647 3199.59526,855.019831 3171.81478,855.240311 C3134.55366,855.240311 3103.90694,877.28827 3069.95302,929.541931 C3016.59686,1011.11938 2962.79974,1082.55476 2905.47494,1148.47816 C2853.66214,1208.44861 2791.92774,1265.99378 2705.72006,1335.88581 C2630.75686,1395.41529 2579.6055,1454.94478 2545.21062,1522.63202 C2534.84806,1542.91614 2525.14694,1563.64122 2515.44582,1584.3663 C2502.65798,1611.92625 2489.2087,1640.14763 2474.65702,1667.4871 C2419.53702,1768.24627 2348.98342,1832.40583 2259.24806,1863.27297 C2230.80614,1872.97408 2201.4823,1881.57278 2173.48134,1889.951 C2134.01542,1901.63642 2093.4471,1913.7628 2054.20166,1928.75541 C1925.8823,1977.70188 1843.86374,2057.95645 1803.95686,2174.14919 C1777.27878,2250.87609 1770.00294,2316.579 1781.24742,2381.17952 C1791.3895,2438.94517 1817.18566,2493.18315 1857.97446,2542.57058 C1939.77254,2641.78639 2008.5623,2739.23837 2068.31238,2839.99754 C2089.69894,2876.37667 2108.8807,2904.37758 2128.7239,2927.74841 C2170.17414,2976.69488 2215.59302,3000.06572 2267.40582,3000.06572 L2273.35878,3000.06572 C2348.54246,2997.19948 2416.4503,2963.90706 2487.0039,2895.55839 C2541.46246,2843.74569 2575.41638,2775.83798 2608.2679,2709.91458 L2610.91366,2704.84355 C2659.19878,2608.49397 2719.6103,2526.91653 2790.38438,2462.09553 C2861.15846,2398.15645 2931.71206,2334.87881 3002.70662,2271.38069 C3042.39302,2235.88347 3082.2999,2200.16578 3121.9863,2164.22761 C3202.68198,2091.68983 3284.92102,2056.41309 3373.3335,2056.41309 C3379.9479,2056.41309 3386.78278,2056.63357 3394.05862,2057.07453 C3454.69062,2060.82268 3497.9047,2080.22489 3530.75622,2117.9269 C3552.58374,2143.94349 3571.10406,2173.26727 3587.86054,2208.32353 C3596.90022,2227.06429 3605.71942,2245.58458 3614.31814,2264.10486 C3643.86246,2327.3825 3674.95014,2392.64446 3713.53414,2451.95347 C3756.30726,2517.4359 3799.9623,2561.97278 3850.45222,2592.17848 C3895.43014,2619.07699 3937.7623,2632.30577 3980.53542,2632.30577 C4008.3159,2632.30577 4036.31686,2626.35282 4063.4359,2614.88788 C4091.43686,2602.98198 4116.3511,2590.41465 4139.28102,2576.52443 C4154.05318,2567.70525 4168.60486,2558.44511 4183.15654,2549.18496 C4219.31526,2526.47557 4256.79686,2503.10473 4295.38086,2483.92301 C4352.04422,2455.48114 4410.47142,2441.14997 4468.67814,2441.14997 C4493.59238,2441.14997 4519.38854,2443.79572 4544.74374,2449.08723 C4656.74758,2472.23759 4736.12038,2558.22463 4756.40454,2679.04744 C4764.34182,2724.24576 4764.5623,2773.63318 4757.50694,2834.48555 C4746.26246,2936.12664 4683.42566,3009.32586 4589.06022,3030.4919 C4537.02694,3042.17732 4483.22982,3044.38211 4431.19654,3046.14595 C4407.3847,3047.02787 4383.35238,3048.13027 4359.76102,3049.8941 C4346.31174,3050.77602 4332.86246,3050.9965 4319.63366,3050.9965 C4298.90854,3050.9965 4277.74246,3051.21698 4256.3559,3054.74465 C4159.3447,3068.63487 4087.46822,3111.62839 4036.75782,3185.70953 C4019.3399,3211.28516 4003.9063,3239.72703 3987.3703,3278.75191 C3983.62214,3288.23253 3978.99206,3293.965 3972.15718,3298.15412 L3740.4327,3298.15412 C3737.34598,3294.62644 3736.0231,3292.20117 3736.0231,3288.23253 C3736.0231,3278.97239 3734.9207,3269.71225 3733.59782,3260.89307 C3732.49542,3251.19196 3731.39302,3242.1523 3731.39302,3232.89216 C3732.27494,3165.64588 3734.70022,3086.93467 3748.1495,3009.54634 C3756.74822,2961.48179 3748.36998,2915.18108 3722.7943,2867.99844 C3697.88006,2821.91821 3674.06822,2770.54647 3648.9335,2706.38691 C3639.89382,2683.67751 3631.07462,2660.52715 3622.25542,2637.81776 C3597.78214,2574.09916 3572.42694,2508.17576 3541.55974,2446.221 C3510.91302,2384.48671 3482.03014,2341.27272 3448.2967,2305.99598 C3408.38982,2263.22294 3361.42758,2241.39546 3308.95334,2241.39546 C3305.86662,2241.39546 3303.00038,2241.39546 3299.91366,2241.61594 C3254.2743,2244.48218 3209.51686,2259.91575 3166.30278,2287.91666 C3105.22982,2328.04394 3046.36166,2373.68321 2989.47782,2417.77913 L2952.43718,2446.66196 C2896.87622,2488.99404 2845.50438,2538.82242 2800.74694,2593.94232 C2748.71366,2658.54284 2714.75974,2735.04925 2685.65638,2808.028 C2640.01702,2921.79546 2574.31398,3026.30279 2484.7991,3126.84148 C2449.74278,3166.08684 2412.26118,3215.47427 2396.16614,3281.17719 C2394.4023,3288.89397 2391.31558,3294.18548 2386.24454,3298.15412 L2122.32998,3298.15412 L2121.44806,3297.05172 C2116.81798,3292.42165 2112.62886,3288.01205 2110.20358,3282.50006 C2089.91942,3228.04161 2054.42214,3181.74089 2001.9479,3140.95217 L1980.56134,3124.19572 C1934.26054,3088.47803 1886.63686,3051.43746 1843.86374,3009.32586 C1781.02694,2946.2687 1723.48166,2874.83331 1667.25926,2791.27155 C1617.65126,2716.74945 1563.1927,2658.10188 1500.13542,2611.36021 C1471.25254,2589.53273 1442.59014,2563.29566 1409.9591,2528.68036 C1356.38246,2472.67855 1306.55398,2411.38522 1258.48934,2351.85574 C1243.05574,2332.67401 1227.62214,2313.49229 1211.74758,2294.31056 C1166.76966,2239.41115 1134.57958,2190.2442 1110.54726,2139.5339 C1051.23814,2016.72677 1038.00934,1882.89566 1032.9383,1768.46675 C1028.96966,1691.51938 1038.22982,1609.72145 1062.26214,1511.60804 C1077.0343,1448.99183 1091.3655,1381.96604 1089.1607,1311.85353 C1085.8535,1205.36189 1058.2935,1108.1304 1006.70118,1023.68671 C955.770296,940.565911 879.484216,898.45431 780.268216,898.45431 C775.417656,898.45431 770.346616,898.674789 765.496056,898.674789 C701.336376,901.541024 636.294776,920.281789 572.355576,954.456124 C520.101816,982.016073 472.478136,1015.74945 417.358136,1058.30201 C306.897656,1143.62761 181.885496,1198.7475 34.8253363,1226.74841 C32.8410163,1226.74841 30.4157363,1227.40985 27.9904563,1228.07129 C24.0218163,1228.95321 20.0531763,1230.05561 16.3050163,1230.05561 C13.6592563,1230.05561 11.2339763,1229.39417 9.02917628,1227.85081 L9.02917628,998.111082 C12.5568563,995.024368 14.9821363,994.362929 17.4074163,994.362929 C30.1952563,994.362929 40.9987763,992.819572 51.3613363,991.496695 C59.7395763,990.394297 67.8973363,989.512378 76.2755763,989.071419 C125.222136,986.646144 170.420536,979.149838 213.414136,966.802981 C269.195576,951.148931 321.669816,925.793778 372.821176,901.320544 C389.357176,893.603759 405.672696,885.666494 422.208696,877.949708 C539.283576,823.71173 649.744056,797.47466 759.984056,797.47466 C791.071736,797.47466 822.600376,799.679456 853.247096,804.089047 C949.376376,816.876863 1024.33958,868.910045 1076.15238,959.527155 C1119.58694,1034.71069 1150.67462,1124.66636 1174.26598,1241.9615 C1188.81766,1312.95593 1191.6839,1376.23357 1183.52614,1435.76306 C1178.01414,1476.55178 1168.31302,1517.56099 1159.05286,1557.24731 C1155.52518,1571.79896 1152.21798,1585.90966 1148.91078,1600.68179 C1127.7447,1694.60609 1123.11462,1782.13649 1134.13862,1868.12353 C1157.5095,2045.38911 1242.3943,2178.11782 1386.14726,2262.5615 C1424.2903,2284.82994 1458.02374,2295.63344 1489.55238,2295.63344 C1538.05798,2295.63344 1580.39014,2270.05781 1618.97414,2217.58367 C1645.8727,2181.86598 1668.80262,2142.84109 1691.29158,2105.13908 C1699.66982,2091.24887 1707.82758,2077.35865 1716.4263,2063.24796 C1776.83782,1966.6779 1859.95878,1891.93532 1963.3639,1841.66598 C2005.69606,1820.72041 2049.79206,1803.30253 2092.56518,1786.3256 C2118.36134,1776.18354 2143.93702,1766.04148 2169.29222,1755.23798 C2289.6743,1702.76384 2357.58214,1615.23344 2376.32294,1487.79624 C2385.36262,1427.60531 2389.11078,1367.19391 2388.00838,1304.35723 C2387.34694,1281.64783 2389.9927,1258.71795 2395.72518,1236.22903 C2406.74918,1192.79456 2432.32486,1167.88036 2474.21606,1160.82502 C2492.95686,1157.29734 2512.13862,1157.07686 2528.67462,1157.07686 L2538.37574,1157.07686 L2548.29734,1157.07686 L2555.13222,1157.07686 C2628.1111,1156.6359 2695.3575,1124.88684 2744.52454,1067.56215 C2798.54214,1004.72547 2822.1335,920.281789 2809.34566,835.838108 C2794.35302,735.519896 2755.9895,641.816073 2722.25606,559.356708 C2716.08262,544.143616 2709.46822,528.930525 2703.0743,514.158393 C2680.80582,461.684251 2657.8759,407.887233 2641.56038,351.664938 C2618.1895,270.528451 2624.8039,206.368892 2662.50598,149.926118 C2684.55398,116.633701 2713.21638,90.3966299 2740.77638,66.8053143 C2748.2727,60.4114064 2755.54854,53.3560596 2762.6039,46.5211925 C2778.69894,30.6466623 2793.69158,15.6540506 2813.75526,9.26014258 L2813.75526,9.26014258 Z" id="Fill-3"></path>
                    <path d="M1170.47372,0.44095917 C1177.3086,67.6872327 1198.2542,130.523914 1223.6094,191.1558 C1266.82348,295.442644 1327.67596,388.485029 1383.23692,484.834608 C1420.939,550.758004 1458.4206,617.122359 1503.619,677.754245 C1592.69292,797.033701 1703.37388,881.036423 1846.90636,901.981983 C1866.08812,904.848218 1885.0494,906.391575 1903.56972,906.391575 C1974.3438,906.391575 2040.26732,884.123137 2094.5054,824.373169 C2125.3726,790.198833 2141.9086,746.543876 2156.68076,702.447959 C2184.24076,621.97291 2199.01292,537.970188 2214.667,454.628905 C2234.95116,344.609592 2266.92076,239.661309 2315.20588,140.004537 C2336.37196,96.1290992 2351.80556,49.6079067 2360.40428,0.44095917 L2154.91692,0.44095917 C2147.64108,7.05534673 2142.79052,14.1106935 2140.8062,25.3551523 C2128.45932,112.444588 2115.451,199.313545 2109.71852,287.505379 C2105.30892,352.767336 2102.2222,417.588334 2092.74156,481.968373 C2081.2766,559.797667 2062.75628,634.760726 2014.91212,698.038367 C1975.66668,750.071549 1923.41292,777.190538 1861.67852,781.60013 C1855.06412,782.261568 1848.89068,782.482048 1842.71724,782.482048 C1763.7854,782.482048 1697.86188,744.33908 1638.55276,689.880622 C1582.55084,638.508879 1544.62828,571.924044 1509.35148,504.457291 C1460.84588,412.517304 1409.69452,322.782113 1359.86604,231.283085 C1326.1326,168.446403 1296.80876,103.404925 1281.81612,31.9695399 C1279.17036,18.9612443 1276.08364,6.39390797 1263.2958,0.44095917 L1170.47372,0.44095917 Z M1180.39532,9.26014258 L1261.091,9.26014258 C1267.92588,13.4492547 1270.57164,20.725081 1273.2174,33.512897 C1286.22572,96.1290992 1310.699,158.304342 1352.14924,235.472197 C1371.11052,270.528451 1390.51276,305.364226 1409.69452,340.2 C1440.34124,395.099417 1471.6494,451.98315 1501.63468,508.646403 C1535.80908,574.34932 1574.39308,642.918471 1632.5998,696.27453 C1702.051,759.99313 1770.84076,791.301231 1842.71724,791.301231 C1849.11116,791.301231 1855.50508,791.080752 1862.33996,790.639793 C1928.48396,786.009721 1982.0606,756.685936 2021.96748,703.329877 C2073.5598,635.201685 2090.97772,553.844718 2101.56076,483.070771 C2109.49804,427.730395 2113.02572,371.287622 2116.5534,316.608684 L2118.53772,288.166818 C2123.82924,205.266494 2135.95564,121.704731 2147.64108,41.0092029 L2149.6254,26.6780298 C2150.7278,19.6226831 2153.37356,14.5516526 2158.4446,9.26014258 L2350.04172,9.26014258 C2341.443,52.4741413 2327.1118,95.2471808 2307.2686,136.035904 C2260.74732,231.944524 2227.67532,335.569929 2206.06828,453.085548 L2202.76108,470.723914 C2188.42988,547.009851 2173.65772,625.500583 2148.30252,699.361244 C2134.41228,741.252366 2118.31724,785.127803 2088.11148,818.6407 C2039.60588,871.5558 1979.41484,897.351912 1903.56972,897.351912 C1886.1518,897.351912 1867.411,896.029034 1848.22924,893.1628 C1717.70508,874.201555 1607.2446,801.884251 1510.67436,672.683215 C1467.68076,614.917563 1430.8606,550.317045 1395.5838,488.362281 L1390.95372,480.425016 C1377.9454,458.156578 1364.93708,435.88814 1351.70828,413.840181 C1308.93516,341.963837 1264.83916,267.441737 1231.76716,187.848607 C1202.88428,118.838496 1187.00972,63.277641 1180.39532,9.26014258 L1180.39532,9.26014258 Z" id="Fill-8"></path>
                    <path d="M621.853336,0.44095917 C613.254616,4.85055087 608.183576,11.9058976 605.758296,21.1660402 C583.710296,106.05068 541.378136,178.367984 485.596696,242.086585 C433.342936,301.395593 374.474776,349.680622 303.921176,381.650162 C266.880536,397.965651 229.178456,403.9186 191.035416,403.9186 C165.239256,403.9186 139.443096,401.272845 113.205976,397.304213 C83.4411763,392.453662 53.8968563,385.839274 23.9115763,380.988723 C21.2658163,380.547764 18.8405363,380.327285 16.4152563,380.327285 C10.2418163,380.327285 4.72981628,381.870642 0.320216276,388.04407 L0.320216276,994.803889 L11.7851763,994.803889 C140.545496,994.803889 261.809496,963.716267 377.561496,901.761504 C478.761816,847.082566 585.915096,813.790149 698.800856,802.104731 C721.951256,799.679456 745.322136,798.136099 768.252056,798.136099 C816.757656,798.136099 864.822296,804.309527 911.784536,819.743098 C981.897176,842.232016 1035.6943,889.635126 1072.51446,955.999482 C1134.46934,1066.23927 1168.42326,1186.84161 1183.4159,1314.71977 C1191.1327,1381.96604 1182.53398,1447.228 1168.42326,1512.71043 C1155.41494,1571.13752 1138.2175,1628.90318 1131.82358,1688.87362 C1114.84662,1854.89475 1139.76086,2009.8919 1243.16598,2140.85677 C1293.43542,2204.13441 1352.52406,2258.81335 1429.03062,2283.72754 C1453.94486,2292.32625 1475.77238,2296.29488 1495.3951,2296.29488 C1543.23926,2296.29488 1577.85462,2271.60117 1615.99766,2222.87518 C1666.92854,2158.71562 1701.76438,2082.42968 1750.49046,2016.72677 C1794.58646,1955.8744 1849.04502,1909.35321 1910.9999,1871.6512 C1992.79798,1822.26377 2082.9743,1794.70382 2169.18198,1756.78134 C2247.89334,1722.16604 2314.03734,1671.45574 2350.19606,1585.4687 C2371.14166,1535.41983 2379.29942,1481.84329 2385.47286,1427.60531 C2391.6463,1371.6035 2383.48854,1315.60169 2392.52822,1260.04083 C2405.09558,1181.10914 2434.6399,1163.91173 2505.1935,1158.8407 C2544.8799,1156.19494 2584.12534,1160.16358 2623.59126,1148.91912 C2731.1855,1119.15437 2811.6607,1008.91458 2812.99691,890.076086 C2813.64502,805.411925 2789.6127,727.362152 2759.8479,651.076215 C2728.9807,571.703564 2695.02678,493.433312 2663.9391,414.281141 C2645.63926,367.759948 2631.08758,319.695399 2628.44182,269.205574 C2625.57558,221.361504 2643.43446,179.911342 2669.89206,142.209332 C2695.24726,104.948283 2730.74454,79.5931303 2761.83222,49.6079067 C2778.5887,33.0719378 2795.56566,16.7564485 2812.54262,0.44095917 L2360.55862,0.44095917 C2355.70806,6.39390797 2349.09366,9.92158133 2347.5503,18.7407647 C2333.2191,78.2702528 2307.8639,132.72871 2283.17014,187.848607 C2239.29462,283.316267 2216.80566,385.839274 2197.40342,489.685159 C2182.1903,570.380687 2165.6543,650.855736 2136.9919,728.24407 C2097.96694,833.633312 2028.29526,889.194167 1905.92886,894.044718 C1901.29878,894.485677 1896.6687,894.485677 1892.03862,894.485677 C1779.37334,894.485677 1685.22838,841.791056 1599.0207,768.150875 C1531.99478,711.046662 1484.15062,637.62696 1439.61366,561.561504 C1385.59606,470.062476 1330.91702,378.563448 1279.54518,285.300583 C1236.11062,205.486973 1202.37718,121.484251 1184.5183,30.6466623 C1182.09302,19.4022035 1179.22678,8.15774465 1170.40758,0.44095917 L1037.23766,0.44095917 C1026.65462,12.1263772 1031.94614,24.473234 1035.03286,36.8200907 C1047.60022,86.2075178 1063.91574,133.831108 1084.86134,179.690862 C1169.52566,367.759948 1265.21398,548.773688 1390.22614,710.164744 C1502.45046,855.240311 1643.77814,958.645237 1809.5791,1023.24576 C1860.73046,1043.08892 1913.42518,1058.52249 1965.89942,1073.5151 C2043.94934,1096.44498 2095.32118,1149.80104 2126.18838,1227.18937 C2153.08694,1295.09708 2172.70966,1364.98911 2175.35542,1439.07025 C2178.22166,1514.47427 2150.44118,1575.10616 2095.1007,1622.06831 C2047.6975,1662.63655 1993.6799,1689.97602 1940.54422,1719.07933 C1881.45558,1751.7103 1821.92598,1783.45936 1767.90838,1825.35049 C1717.63894,1865.03681 1673.32246,1911.99896 1631.21078,1961.60687 C1606.7375,1991.15113 1580.72086,2018.93156 1552.27894,2044.50719 C1519.20694,2073.6105 1483.93014,2086.83927 1449.53526,2086.83927 C1401.02966,2086.83927 1353.84694,2060.6022 1316.14486,2015.18341 C1251.98518,1937.57459 1238.5359,1844.53221 1246.91414,1745.3164 C1251.54422,1692.4013 1264.9935,1641.02955 1278.66326,1589.87829 C1306.00278,1492.20583 1307.32566,1393.87194 1285.9391,1294.65612 C1256.39478,1159.72262 1220.45654,1026.99391 1167.76182,899.997667 C1120.35862,785.348283 1035.25334,724.716397 923.690456,701.125081 C874.523416,690.542061 824.033496,686.793908 773.543576,682.825275 C712.250136,677.754245 650.515736,675.769929 590.324696,657.690603 C572.245336,652.399093 555.047896,645.123266 539.614296,632.114971 C512.274776,609.405574 506.101336,580.522748 512.495256,546.127933 C519.771096,508.646403 536.086616,476.235904 555.488856,444.927803 C594.513816,380.988723 642.137496,323.884511 685.131096,263.914064 C735.400536,193.801555 780.598936,121.043292 803.749336,35.2767336 C806.836056,23.5913156 811.245656,12.1263772 803.308376,0.44095917 L621.853336,0.44095917 Z M624.058136,9.26014258 L798.237336,9.26014258 C800.221656,14.5516526 798.678296,20.5046014 796.253016,29.3237848 L795.150616,33.0719378 C771.559256,120.822813 724.817496,193.360596 678.075736,258.843033 C663.744536,278.245237 649.413336,297.64744 634.861656,317.049644 C605.096856,356.07453 574.450136,396.863253 547.992536,440.077252 C531.897496,466.314323 512.054296,502.032016 503.896536,544.364096 C496.400216,584.71186 506.101336,615.799482 534.102296,638.949838 C552.402136,654.162929 572.245336,661.438756 587.899416,666.289307 C639.712216,681.722878 693.288856,685.47103 745.101656,689.439663 L773.102616,691.644459 L785.449496,692.526377 C830.427416,696.27453 877.169176,700.243163 921.706136,709.723785 C1038.11958,734.197019 1115.72854,797.47466 1159.38358,903.52534 C1205.24342,1013.32417 1242.50454,1138.3361 1277.34038,1296.64044 C1298.94742,1396.95865 1296.74262,1492.20583 1270.28502,1587.67349 C1255.51286,1642.35243 1242.72502,1692.4013 1238.09494,1744.65496 C1228.17334,1862.17058 1250.88278,1949.92145 1309.30998,2020.6954 C1349.65782,2069.20091 1399.26582,2095.65846 1449.53526,2095.65846 C1487.45782,2095.65846 1524.93942,2080.22489 1558.01142,2051.12158 C1585.57142,2026.42787 1611.58806,1998.86792 1638.04566,1967.11886 C1687.2127,1909.13273 1730.2063,1866.35969 1773.42038,1832.40583 C1823.02838,1793.82191 1878.80982,1763.17524 1932.60694,1733.63098 L1944.95382,1726.79611 L1963.47414,1716.43357 C2010.2159,1691.2989 2058.28054,1665.28231 2100.83318,1628.90318 C2159.0399,1579.29527 2187.04086,1515.35619 2184.17462,1438.84977 C2181.74934,1372.04446 2166.09526,1303.47531 2134.34614,1224.32314 C2100.83318,1139.87946 2046.5951,1088.28723 1968.10422,1065.13688 C1922.46486,1052.12858 1865.58102,1035.59261 1812.66582,1015.08801 C1646.20342,950.267012 1506.4191,845.759689 1397.2815,704.432275 C1288.36438,564.427738 1194.66038,401.272845 1092.79862,176.163189 C1072.73494,132.287751 1056.19894,84.4436811 1043.63158,34.6152949 L1042.3087,29.9852236 C1039.88342,20.725081 1038.56054,14.5516526 1041.42678,9.26014258 L1166.8799,9.26014258 C1171.95094,14.9926118 1173.93526,23.370836 1175.91958,32.6309786 C1192.67606,117.515619 1223.98422,201.73882 1271.82838,289.489695 C1316.8063,371.728581 1365.3119,453.306027 1412.05366,532.237719 L1432.11734,565.750616 C1482.1663,651.517174 1528.68758,720.086325 1593.06774,775.206222 C1695.81142,862.516137 1790.8383,903.084381 1892.03862,903.084381 L1906.36982,903.084381 C2028.07478,897.792871 2103.9199,843.334413 2145.14966,731.110305 C2174.4735,652.399093 2191.45046,569.278289 2206.22262,491.228516 C2223.64054,397.965651 2245.90902,289.710175 2291.10742,191.37628 L2294.6351,183.879974 C2318.00598,132.067272 2342.25878,78.4907323 2356.14902,20.725081 C2356.81046,16.9769281 2358.79478,14.9926118 2362.32246,11.4649384 C2362.9839,10.8034997 2363.64534,9.92158133 2364.30678,9.26014258 L2790.7151,9.26014258 C2778.80918,20.725081 2767.12374,31.9695399 2755.87926,42.9935191 C2746.39862,52.2536617 2736.6975,60.8523655 2726.7759,69.6715489 C2704.28694,89.5147116 2680.91606,110.239793 2662.61622,136.917822 C2630.42614,182.998056 2616.97686,225.330136 2619.62262,269.867012 C2622.0479,313.962929 2633.51286,361.145561 2655.78134,417.808814 C2669.89206,453.967466 2684.66422,489.905638 2699.65686,525.843811 C2717.29526,568.396371 2734.93366,611.16941 2751.69014,654.383409 C2777.92726,722.070642 2804.82582,803.207129 2803.72342,889.855606 C2803.06198,1004.28451 2724.35062,1112.09903 2621.16598,1140.54089 C2594.92886,1148.0372 2568.91222,1148.47816 2541.13174,1148.91912 C2529.00534,1149.1396 2516.87894,1149.36008 2504.53206,1150.242 C2433.75798,1155.31303 2397.59926,1172.73091 2383.9295,1258.71795 C2378.85846,1289.80557 2379.07894,1320.67272 2379.29942,1351.0989 C2379.5199,1375.79261 2379.5199,1401.58872 2376.65366,1426.50292 C2371.14166,1474.78795 2363.20438,1530.78976 2342.0383,1582.1615 C2310.50966,1656.6836 2254.50774,1709.5987 2165.6543,1748.84407 C2138.0943,1760.74997 2109.65238,1771.99443 2082.09238,1783.01841 C2023.22422,1805.94828 1962.59222,1830.20104 1906.36982,1864.15489 C1838.90294,1905.38458 1785.3263,1953.44913 1743.4351,2011.43526 C1720.72566,2042.08192 1700.88246,2075.37434 1681.7007,2107.56436 C1659.21174,2144.82541 1636.28182,2183.18885 1609.16278,2217.36319 C1570.13782,2267.19157 1537.2863,2287.4757 1495.3951,2287.4757 C1476.87478,2287.4757 1456.14966,2283.50706 1431.89686,2275.34932 C1366.85526,2254.18328 1309.0895,2209.86688 1250.22134,2135.56526 C1157.84022,2018.4906 1122.12246,1872.7536 1140.86326,1689.75554 C1145.05238,1647.20298 1155.41494,1604.65042 1165.33654,1563.64122 C1169.30518,1547.32573 1173.27382,1530.78976 1177.02198,1514.47427 C1194.4399,1434.88114 1198.8495,1372.92638 1192.2351,1313.83785 C1176.14006,1175.59715 1139.54038,1057.19961 1080.23126,951.58989 C1040.98582,881.477382 985.204376,834.074271 914.650776,811.364874 C869.231896,796.592741 821.387736,789.316915 768.252056,789.316915 C745.763096,789.316915 722.171736,790.639793 697.918936,793.285548 C584.592216,804.970966 475.234136,838.924822 373.372376,894.044718 C257.840856,955.999482 139.443096,986.205185 11.7851763,986.205185 L9.13941628,986.205185 L9.13941628,391.351264 C10.9032563,389.807907 13.1080563,388.925988 16.4152563,388.925988 C18.3995763,388.925988 20.1634163,389.366948 22.3682163,389.807907 C36.6994163,391.792223 50.3691763,394.658458 64.4798963,397.524692 C80.1339763,400.390927 96.0085363,403.477641 111.883096,406.123396 C142.088856,410.532988 167.223576,412.737784 191.035416,412.737784 C234.029016,412.737784 272.172056,405.241478 307.448856,389.807907 C374.474776,359.602203 434.886296,313.081011 492.211096,247.819054 C553.284056,177.927025 593.190936,104.727803 614.357016,23.370836 C615.900376,16.7564485 618.987096,12.3468568 624.058136,9.26014258 L624.058136,9.26014258 Z" id="Fill-14"></path>
                    <path d="M3200.01417,0.44095917 C3237.49577,107.594038 3280.48937,213.203759 3305.18313,325.648347 C3316.64809,379.886325 3328.33353,434.565262 3348.39721,486.598445 C3362.94889,525.843811 3384.33545,560.238626 3411.89545,590.00337 C3442.54217,623.075308 3474.51177,655.265327 3505.59945,687.675826 C3575.27113,759.99313 3617.16233,849.728321 3626.86345,952.912767 C3639.21033,1086.30292 3659.71497,1218.14971 3681.10153,1349.9965 C3692.34601,1416.36086 3695.65321,1484.04809 3700.50377,1550.8534 C3704.91337,1611.48529 3709.98441,1672.11717 3728.28425,1730.54426 C3753.41897,1807.05068 3821.76777,1856.87907 3896.51049,1856.87907 C3905.77065,1856.87907 3915.25129,1855.99715 3924.73193,1854.45379 C4024.16841,1837.47686 4086.78473,1771.11251 4133.96745,1682.92067 C4173.21289,1609.94193 4188.20553,1529.90784 4193.05609,1446.34608 C4197.24521,1366.97343 4196.14281,1287.60078 4211.35593,1209.11005 C4236.49065,1082.1138 4298.88649,982.677511 4399.20489,909.698769 C4438.45033,881.036423 4479.01865,853.917434 4517.38217,823.491251 C4582.42377,772.119507 4618.58249,703.991316 4624.97641,616.240441 C4628.06313,575.672197 4628.06313,536.64731 4620.34633,496.960985 C4609.54281,438.313415 4574.92745,401.934284 4522.89417,384.957356 C4490.70409,374.594815 4457.41161,371.287622 4423.45769,370.846662 C4415.74089,370.405703 4408.02409,370.405703 4400.08681,370.405703 C4376.49545,370.405703 4352.90409,371.067142 4329.09225,371.067142 C4303.29609,371.067142 4277.94089,370.405703 4252.14473,367.759948 C4173.65385,359.822683 4102.65929,328.073623 4036.29481,284.639145 C3969.93033,241.645625 3909.51881,189.832923 3864.54089,121.484251 C3839.84713,84.4436811 3819.78345,44.7573558 3808.97993,0.44095917 L3587.17705,0.44095917 C3577.03497,8.15774465 3578.13737,20.0636423 3577.47593,31.5285807 C3575.93257,68.1281918 3581.00361,104.507323 3573.50729,140.886455 C3569.97961,158.083863 3568.21577,177.706546 3549.25449,184.320933 C3545.50633,185.643811 3542.19913,186.30525 3538.89193,186.30525 C3524.56073,186.30525 3513.09577,175.50175 3503.17417,164.91873 C3468.99977,128.539598 3441.21929,87.7508749 3422.47849,40.5682437 C3416.52553,25.3551523 3412.77737,8.59870382 3397.56425,0.44095917 L3200.01417,0.44095917 Z M3212.58153,9.26014258 L3395.13897,9.26014258 C3403.73769,14.7721322 3407.48585,24.9141931 3411.45449,36.3791316 L3414.32073,43.4344783 C3432.62057,89.5147116 3459.29865,131.405833 3496.78025,170.871679 C3507.80425,182.557097 3521.03305,195.124433 3538.89193,195.124433 C3543.30153,195.124433 3547.49065,194.242515 3552.12073,192.919637 C3573.72777,184.982372 3577.91689,164.477771 3581.22409,147.721322 L3582.10601,142.650292 C3587.17705,117.736099 3586.73609,93.042385 3586.29513,69.0101102 C3585.85417,56.6632534 3585.85417,44.3163966 3586.29513,31.9695399 L3586.29513,27.5599482 C3586.73609,18.9612443 3587.17705,13.4492547 3590.48425,9.26014258 L3801.92457,9.26014258 C3812.28713,47.84407 3830.36649,86.2075178 3857.04457,126.114323 C3897.61289,188.289566 3953.17385,240.984187 4031.44425,291.914971 C4106.84841,341.522878 4178.72489,369.082826 4251.48329,376.358652 C4279.92521,379.445366 4307.70569,379.886325 4329.09225,379.886325 C4340.77769,379.886325 4352.90409,379.886325 4364.58953,379.445366 L4400.08681,379.445366 L4423.45769,379.445366 C4462.26217,380.327285 4493.12937,384.516397 4520.24841,393.55606 C4571.17929,409.871549 4601.60553,445.368762 4611.52713,498.724822 C4618.36201,533.119637 4619.68489,569.057809 4615.93673,615.799482 C4609.98377,700.463642 4575.80937,766.166559 4511.64969,816.656384 C4486.95593,836.279067 4460.93929,854.799352 4435.58409,872.878678 L4394.13385,902.643422 C4292.49257,976.504083 4228.11241,1079.02709 4202.75721,1207.56669 C4191.07177,1265.99378 4188.86697,1326.40518 4187.10313,1384.17084 C4186.22121,1404.67544 4185.33929,1425.40052 4184.23689,1445.68464 C4178.72489,1540.49086 4160.42505,1614.572 4126.25065,1678.73156 C4073.11497,1778.16785 4008.73481,1831.30343 3922.96809,1845.85509 C3914.36937,1847.39844 3905.32969,1848.05988 3896.51049,1848.05988 C3824.41353,1848.05988 3760.25385,1799.77485 3737.10345,1727.67803 C3718.14217,1669.03046 3713.29161,1605.75282 3709.32297,1550.19196 L3706.89769,1514.91523 C3702.92905,1460.23629 3699.18089,1403.57304 3689.92073,1348.67362 C3670.29801,1228.95321 3648.47049,1089.61011 3635.68265,952.030849 C3625.76105,847.523526 3584.09033,756.685936 3511.77289,681.502398 C3500.30793,669.376021 3488.62249,657.249644 3476.93705,645.343746 C3457.09385,625.059624 3437.47113,604.775502 3418.28937,583.829942 C3391.39081,554.726636 3370.44521,520.99326 3356.77545,483.51173 C3336.93225,432.139987 3325.02633,377.46105 3313.78185,324.545949 C3294.60009,236.354115 3263.95337,151.910434 3234.40905,70.5534673 L3212.58153,9.26014258 L3212.58153,9.26014258 Z" id="Fill-16"></path>
                    <path d="M3170.71238,853.057563 C3138.08134,853.057563 3109.8599,870.47545 3084.94566,905.531704 C3038.86534,971.014141 2995.43078,1038.48089 2944.94086,1099.55374 C2901.06534,1152.9098 2854.54406,1203.17914 2804.27462,1249.92082 C2744.30406,1305.26119 2677.27814,1350.90047 2621.4967,1411.53235 C2585.99942,1449.8958 2557.99846,1493.33028 2534.84806,1540.29243 C2506.8471,1597.61712 2482.81478,1657.36709 2447.53798,1710.06171 C2401.0167,1779.51278 2342.5895,1831.98692 2265.64198,1858.88543 C2196.41126,1883.35866 2125.4167,1899.2332 2057.0679,1925.91122 C1993.34918,1950.82542 1932.71718,1982.354 1885.0935,2034.38718 C1825.34342,2100.0901 1792.05094,2179.02179 1779.2631,2268.97746 C1767.57766,2351.43682 1782.12934,2427.2818 1824.24102,2496.95335 C1843.42278,2529.36385 1866.57318,2558.0262 1890.38502,2586.24758 C1948.37126,2654.81673 1997.97926,2729.33883 2045.38246,2806.06573 C2069.85574,2845.97253 2094.99046,2886.09982 2123.65286,2923.80183 C2161.57542,2974.07117 2216.25446,3002.51304 2274.02022,3002.51304 C2292.9815,3002.51304 2311.94278,2999.42633 2331.12454,2993.2529 C2428.35622,2961.50384 2502.87846,2898.66715 2557.11654,2806.72717 C2597.90534,2736.83514 2630.75686,2661.6516 2676.83718,2595.06677 C2725.78374,2524.73378 2785.7543,2466.52717 2848.5911,2411.18679 C2912.75078,2354.9645 2976.91046,2298.7422 3039.52678,2240.09463 C3090.23718,2193.13248 3140.06566,2144.62697 3198.71334,2109.12976 C3254.49478,2075.83734 3312.92198,2058.19898 3374.21542,2058.19898 C3394.49958,2058.19898 3414.78374,2060.18329 3435.94982,2063.93145 C3486.8807,2073.85303 3523.48038,2105.38161 3552.80422,2147.93417 C3567.79686,2169.76165 3579.70278,2193.13248 3590.94726,2216.7238 C3628.42886,2296.97837 3663.70566,2378.55581 3712.21126,2452.19599 C3747.92902,2506.87493 3789.37926,2554.719 3843.39686,2589.55478 C3888.59526,2619.09904 3934.23462,2634.09165 3980.31494,2634.09165 C4019.56038,2634.09165 4058.58534,2623.28815 4098.05126,2601.24019 C4158.68326,2566.84538 4217.7719,2529.80481 4277.74246,2494.74855 C4335.50822,2461.23566 4398.34502,2442.93585 4462.94566,2442.27441 L4463.82758,2442.27441 C4574.06758,2442.27441 4667.99206,2480.1969 4726.86022,2588.01142 C4748.24678,2628.35918 4756.8455,2672.67558 4760.1527,2718.09437 C4764.34182,2772.99379 4761.91654,2828.33417 4746.26246,2882.13119 C4723.33254,2962.16528 4671.07878,3008.02503 4595.23366,3026.54531 C4540.99558,3039.99457 4485.43462,3041.75841 4429.4327,3045.50656 C4356.6743,3049.47519 4283.03398,3041.75841 4211.1575,3061.60157 C4118.11494,3086.73624 4050.42758,3144.94285 4006.55206,3234.67804 C3994.86662,3258.26936 3984.94502,3282.96307 3974.58246,3306.99535 L4160.00614,3306.99535 C4167.28198,3301.48336 4175.21926,3297.7352 4180.2903,3289.35698 C4209.39366,3240.63099 4253.48966,3213.95296 4304.20006,3199.62179 C4342.3431,3188.59781 4380.70662,3183.08582 4418.62918,3183.08582 C4471.98534,3183.08582 4525.12102,3193.44836 4577.59526,3212.85056 C4611.3287,3226.07934 4636.46342,3249.89113 4652.1175,3284.28595 C4656.5271,3294.64849 4663.36198,3301.48336 4672.62214,3306.99535 L4850.10854,3306.99535 C4859.3687,3299.27856 4861.35302,3287.59314 4863.55782,3276.1282 C4877.66854,3190.80261 4928.8199,3142.07662 5003.56262,3116.06003 C5055.15494,3098.20118 5107.84966,3083.64953 5159.66246,3065.34972 C5265.71334,3027.64771 5352.1415,2962.38576 5417.40358,2865.59522 C5442.09734,2828.99561 5467.67302,2793.49839 5493.02822,2757.33974 C5502.0679,2744.7724 5504.71366,2729.77979 5511.76902,2716.99198 L5511.76902,2411.18679 C5434.60102,2344.82244 5358.09446,2276.47377 5290.62758,2198.42399 C5241.68102,2141.31978 5195.6007,2082.01077 5148.1975,2023.3632 C5099.47142,1962.73132 5048.32006,1905.84758 4992.31814,1853.15296 C4918.8983,1785.02477 4843.05318,1719.10137 4782.2007,1637.52393 C4707.2375,1536.54428 4661.59814,1421.45393 4639.9911,1294.67817 C4629.18758,1233.82581 4622.79366,1171.2096 4599.86374,1113.22347 C4583.54822,1071.55283 4555.32678,1048.62296 4518.50662,1048.62296 C4509.02598,1048.62296 4499.10438,1049.94583 4488.52134,1053.03255 C4430.97606,1070.00948 4387.98246,1107.05005 4358.8791,1163.93378 C4327.35046,1225.88854 4314.34214,1292.69386 4309.2711,1361.92445 C4299.56998,1491.34596 4279.5063,1617.68076 4217.99238,1732.77111 C4155.15558,1849.84577 4072.91654,1942.44719 3945.4791,1977.50345 C3909.32038,1987.20455 3872.7207,1991.83462 3835.68006,1991.83462 C3803.71046,1991.83462 3771.52038,1988.30695 3739.55078,1981.2516 C3662.38278,1963.61323 3624.23974,1915.98964 3611.67238,1832.64836 C3602.19174,1769.5912 3599.3255,1705.65212 3599.76646,1642.59496 C3601.30982,1485.61349 3567.3559,1338.33313 3501.43238,1198.76955 C3468.1399,1128.65704 3436.83174,1057.22166 3391.63334,993.944018 C3343.34822,926.477265 3279.6295,883.704226 3204.6663,858.569553 C3192.76038,854.8214 3181.5159,853.057563 3170.71238,853.057563 M3170.71238,861.656267 C3180.4135,861.656267 3190.99654,863.420104 3201.80006,867.168257 C3279.6295,893.184848 3339.60006,936.178367 3384.3575,999.015049 C3423.38246,1053.69399 3452.7063,1116.08971 3480.92774,1176.50111 L3493.27462,1202.73819 C3560.52102,1344.50656 3592.27014,1488.47973 3590.94726,1642.37448 C3590.5063,1715.13274 3594.47494,1777.74894 3602.85318,1833.97124 C3616.08198,1922.38355 3659.07558,1971.77098 3737.78694,1989.8503 C3770.41798,1996.90565 3803.2695,2000.6538 3835.68006,2000.6538 C3873.60262,2000.6538 3911.3047,1995.80325 3947.6839,1986.10215 C4062.99494,1954.35309 4151.18694,1875.4214 4225.70918,1737.1807 C4291.6327,1613.93261 4309.2711,1478.77863 4318.31078,1362.58588 C4324.04326,1283.21323 4339.47686,1221.47895 4366.81638,1167.90241 C4395.03782,1112.78251 4435.82662,1077.94674 4490.94662,1061.41077 C4500.42726,1058.76502 4509.9079,1057.22166 4518.50662,1057.22166 C4559.95686,1057.22166 4580.90246,1089.41168 4591.70598,1116.31019 C4609.34438,1161.72898 4617.50214,1211.11641 4625.21894,1258.74 C4626.98278,1271.08686 4629.18758,1283.65419 4631.39238,1296.22153 C4653.88134,1427.84784 4701.94598,1544.70202 4774.92486,1642.81544 C4828.28102,1713.80986 4893.10214,1773.78031 4956.15942,1831.76644 L4986.1447,1859.54687 C5039.72134,1910.25717 5090.43174,1965.59755 5141.36262,2028.87519 L5177.52134,2074.07351 C5211.91622,2117.06703 5247.19302,2161.6039 5283.7927,2204.15646 C5353.68486,2284.85199 5433.49862,2355.40546 5502.94982,2415.3759 L5502.94982,2714.78718 C5499.8631,2720.29917 5498.09926,2725.81116 5495.89446,2731.54363 C5493.02822,2739.03994 5490.38246,2746.09528 5485.97286,2752.04823 L5464.14534,2783.13585 C5445.8455,2808.71148 5427.54566,2834.28712 5410.12774,2860.52419 C5346.6295,2954.66897 5263.72902,3019.04901 5156.79622,3056.9715 C5130.11814,3066.45212 5102.55814,3075.05082 5075.88006,3083.42905 C5050.30438,3091.14583 5025.39014,3099.0831 5000.69638,3107.6818 C4916.47302,3137.00559 4868.62886,3191.46404 4854.73862,3274.58485 C4853.19526,3283.62451 4851.6519,3292.22321 4846.58086,3298.17616 L4674.82694,3298.17616 C4667.99206,3293.54609 4663.36198,3288.25458 4660.27526,3280.97876 C4643.51878,3244.37914 4616.8407,3218.58303 4580.68198,3204.69282 C4526.00294,3184.4087 4471.54438,3174.26664 4418.62918,3174.26664 C4379.38374,3174.26664 4340.1383,3179.99911 4301.5543,3191.02308 C4242.24518,3208.00001 4200.35398,3238.64668 4172.79398,3284.72691 C4169.70726,3289.57746 4165.51814,3292.44369 4160.22662,3295.97137 C4159.12422,3296.85329 4158.2423,3297.51472 4157.36038,3298.17616 L3988.03174,3298.17616 C3989.35462,3294.86897 3990.6775,3292.00273 3992.00038,3288.69554 C3999.05574,3272.15957 4006.33158,3254.96216 4014.26886,3238.4262 C4057.26246,3150.8958 4124.28838,3094.23255 4213.3623,3070.20027 C4262.9703,3056.31006 4314.56262,3056.08958 4364.61158,3055.64862 C4385.99814,3055.64862 4408.26662,3055.42814 4429.87366,3054.32574 L4455.66982,3052.78238 C4502.41158,3049.69567 4550.47622,3046.60896 4597.43846,3035.14402 C4678.79558,3015.30086 4731.71078,2964.59055 4755.08166,2884.55646 C4768.9719,2834.94855 4773.60198,2780.4901 4769.19238,2717.43294 C4764.78278,2662.754 4754.19974,2620.42192 4734.57702,2584.04279 C4679.23654,2482.62218 4590.82406,2433.45523 4463.82758,2433.45523 C4397.02214,2434.11667 4333.30342,2452.19599 4273.55334,2487.25225 C4249.08006,2501.58342 4224.3863,2516.35555 4199.91302,2530.90721 C4165.51814,2551.63229 4129.5799,2573.45977 4093.86214,2593.52341 C4056.16006,2614.46897 4018.01702,2625.27247 3980.31494,2625.27247 C3936.88038,2625.27247 3892.12294,2610.72082 3848.02694,2582.27895 C3800.18278,2551.41181 3759.61446,2508.63877 3719.70758,2447.34544 C3678.47782,2384.94972 3646.28774,2315.27817 3615.20006,2248.0319 L3598.66406,2212.97564 C3584.9943,2183.65186 3573.08838,2162.04486 3560.30054,2143.08362 C3525.90566,2093.25523 3485.7783,2064.59288 3437.71366,2055.33274 C3416.10662,2051.36411 3395.16102,2049.37979 3374.21542,2049.37979 C3312.7015,2049.37979 3252.0695,2067.01816 3194.30374,2101.63345 C3139.6247,2134.48491 3092.44198,2178.80131 3046.80262,2221.35387 L3033.57382,2233.70073 C2976.91046,2286.83631 2917.82182,2338.64901 2860.49702,2389.13883 L2842.63814,2404.5724 C2786.41574,2454.40079 2722.03558,2515.03268 2669.78182,2590.21622 C2640.67846,2631.88686 2616.42566,2677.74661 2593.27526,2722.06301 C2579.16454,2748.74104 2564.83334,2776.08051 2549.62022,2802.31758 C2495.38214,2894.25756 2422.84422,2953.78705 2328.47878,2984.87467 C2310.6199,2990.82762 2292.32006,2993.91434 2274.02022,2993.91434 C2219.1207,2993.91434 2166.64646,2966.35439 2130.70822,2918.28984 C2100.94342,2879.26495 2074.92678,2837.59431 2053.09926,2801.65614 C2010.98758,2733.74843 1959.83622,2654.59625 1897.2199,2580.73559 C1874.73094,2554.27804 1851.58054,2525.39522 1831.73734,2492.54376 C1790.72806,2424.19509 1776.39686,2351.6573 1788.0823,2270.30034 C1801.09062,2177.91939 1834.82406,2102.73585 1891.48742,2040.56061 C1942.19782,1984.99975 2008.34182,1954.57357 2060.3751,1934.06897 C2098.51814,1919.29684 2138.20454,1907.39094 2176.78854,1895.926 C2206.9943,1887.10682 2238.30246,1877.84668 2268.50822,1867.48413 C2342.5895,1841.24706 2403.66246,1791.63916 2454.81382,1714.91226 C2481.4919,1675.22594 2501.99654,1631.13002 2522.06022,1588.57746 C2528.8951,1573.80533 2535.72998,1558.81272 2542.78534,1544.26106 C2567.25862,1494.65316 2595.0391,1453.20299 2627.89062,1417.70578 C2661.40358,1381.10617 2699.98758,1349.57759 2737.02822,1318.71045 C2761.5015,1298.6468 2786.63622,1278.36268 2810.22758,1256.31472 C2858.73318,1211.55737 2905.03398,1161.94946 2951.55526,1105.28621 C2989.47782,1059.42645 3024.09318,1009.37759 3057.38566,960.651601 C3069.0711,943.895152 3080.75654,927.359183 3092.44198,910.823215 C3115.3719,877.751277 3140.94758,861.656267 3170.71238,861.656267" id="Fill-33"></path>
                    <path d="M776.872824,897.418056 C693.531384,897.418056 616.363384,926.080402 543.164024,969.294401 C474.374264,1010.3036 412.419384,1061.89583 345.393464,1105.77126 C245.736504,1171.03322 135.716984,1204.98708 22.1697843,1227.25552 C15.1144243,1228.79887 7.61810428,1230.34223 0.342264275,1232.10607 L0.342264275,1477.27936 C88.3137843,1424.58474 181.135864,1381.37075 271.091704,1333.3062 C355.094584,1287.8874 429.837304,1229.01935 501.493304,1164.85979 C561.243384,1110.62181 622.977784,1058.36815 699.263864,1030.8082 C725.941944,1021.76854 751.517624,1017.13847 775.770424,1017.13847 C860.434744,1017.13847 929.444984,1072.03789 962.957944,1169.71034 C992.722744,1258.34314 988.313144,1346.09401 967.147064,1434.50633 C941.350904,1540.77749 930.547384,1648.592 936.941304,1757.7294 C943.996664,1879.87509 951.933944,2002.46174 974.643384,2122.62311 C987.210744,2187.88507 1012.78642,2247.85552 1047.62226,2303.19589 C1090.39538,2371.76504 1136.25522,2438.34988 1167.78386,2514.19485 C1194.9029,2579.89777 1219.81714,2646.70308 1244.95186,2712.84696 C1284.85874,2818.2362 1354.53042,2891.6559 1452.8645,2934.20846 C1542.82034,2973.01287 1624.39794,3024.38461 1696.93586,3094.49712 C1758.67026,3154.46757 1817.09746,3217.30425 1859.42962,3294.91307 C1861.63442,3298.66122 1862.9573,3303.07081 1864.50066,3307.03944 L2118.7141,3307.03944 C2102.83954,3241.77749 2066.68082,3191.06718 2016.85234,3151.38086 C1937.47954,3087.88273 1856.3429,3026.80989 1788.43506,2948.53964 C1743.23666,2896.50645 1702.44786,2842.048 1664.5253,2784.72331 C1616.68114,2711.96504 1557.5925,2653.31747 1490.56658,2601.50477 C1423.54066,2549.25111 1368.20018,2484.20963 1313.9621,2416.96336 C1270.9685,2364.04826 1227.9749,2310.91268 1185.64274,2257.55662 C1110.67954,2162.97087 1068.56786,2052.73108 1049.60658,1931.24683 C1041.00786,1875.68598 1035.71634,1819.46368 1033.51154,1763.02091 C1030.42482,1677.69531 1043.21266,1594.5745 1063.27634,1512.77658 C1080.91474,1440.90023 1094.36402,1368.80341 1089.73394,1294.06083 C1082.67858,1178.08857 1050.70898,1070.93549 977.950584,982.743655 C937.602744,933.356228 884.026104,908.001076 822.732664,900.28429 C807.299064,898.299974 791.865464,897.418056 776.872824,897.418056 M776.872824,906.01676 C791.644984,906.01676 806.858104,907.119157 821.630264,909.103474 C884.246584,916.820259 934.736504,943.498289 971.115704,988.255645 C1037.48018,1068.28973 1073.19794,1168.60795 1080.91474,1294.50179 C1085.7653,1371.0082 1071.21362,1443.54599 1054.67762,1510.57178 C1031.52722,1605.59848 1021.8261,1685.85305 1024.69234,1763.46187 C1026.89714,1820.12512 1032.18866,1876.78837 1041.00786,1932.56971 C1061.5125,2063.97554 1106.49042,2172.01054 1178.80786,2262.84813 C1221.14002,2316.64515 1264.13362,2369.78073 1306.90674,2422.47535 C1358.71954,2486.63491 1415.16242,2554.10166 1485.27506,2608.33964 C1557.37202,2664.34145 1613.59442,2723.42998 1657.24946,2789.57386 C1697.15634,2849.98526 1737.72466,2904.00276 1781.82066,2954.27211 C1842.23218,3023.94366 1913.6677,3080.38643 1982.67794,3135.28585 L2011.34034,3158.21572 C2059.84594,3197.24061 2091.37458,3243.10036 2107.24914,3298.22026 L1870.6741,3298.22026 C1869.5717,3295.5745 1868.4693,3292.70827 1866.92594,3290.50347 C1823.05042,3210.02843 1762.19794,3145.64839 1703.1093,3088.32369 C1632.99666,3020.41598 1552.30098,2967.50088 1456.39218,2926.05072 C1360.2629,2884.60056 1291.69362,2811.62181 1253.10962,2709.98073 L1240.1013,2674.70399 C1219.59666,2620.68649 1198.43058,2564.90516 1176.1621,2510.66718 C1149.7045,2447.8305 1113.3253,2390.50581 1078.0485,2335.16543 C1070.3317,2323.03905 1062.6149,2310.6922 1055.11858,2298.34534 C1019.18034,2241.24113 994.927544,2181.27068 983.462584,2120.85927 C961.414584,2004.44605 953.256824,1887.37139 945.760504,1757.28844 C939.587064,1651.8992 949.729144,1543.8642 975.745784,1436.27016 C1000.43954,1333.96763 998.896184,1248.42156 971.336184,1167.06459 C936.720824,1066.30542 865.285304,1008.53977 775.770424,1008.53977 C750.194744,1008.53977 723.516664,1013.16984 696.397624,1022.65046 C618.347704,1050.65137 556.833784,1102.90503 495.760824,1158.24541 C410.655544,1234.53134 340.322424,1286.12356 266.902584,1325.36893 C235.373944,1342.34586 203.183864,1358.66135 171.214264,1374.97684 C117.637624,1402.31631 62.2971443,1430.53769 9.16146428,1461.84579 L9.16146428,1239.16141 L9.38194428,1238.94093 L23.9336243,1235.85422 C161.733624,1208.51475 262.492984,1170.59226 350.023544,1113.26757 C378.685944,1094.74728 406.466424,1074.46316 433.585464,1054.62 C470.185144,1027.94197 508.328184,1000.38202 547.794104,976.570227 C628.489784,929.387596 703.452984,906.01676 776.872824,906.01676" id="Fill-35"></path>
                    <path d="M0.254072275,1795.49755 L0.254072275,2002.3074 C139.817912,2015.75666 277.838392,2037.80461 396.677112,2124.01213 C543.737272,2231.82665 635.236472,2379.10701 662.135032,2569.82185 C674.702392,2657.79321 678.009592,2747.96936 694.545592,2835.72023 C709.979192,2917.0772 736.877752,2993.36314 795.745912,3050.90831 C836.755192,3090.59463 885.040312,3119.69794 932.663992,3149.90364 C990.209272,3186.06229 1043.12447,3227.95342 1083.47231,3286.16003 C1087.88191,3292.33345 1090.30719,3299.82976 1093.83487,3306.88511 L1243.09983,3306.88511 C1225.46143,3201.27539 1164.60895,3131.16288 1082.36991,3076.9249 C1027.91135,3040.98673 971.688952,3009.45815 923.183352,2963.81887 C878.205432,2922.14823 850.424952,2868.79217 829.699832,2811.02652 C800.596472,2732.09483 792.438712,2648.31259 778.989432,2565.63274 C764.437752,2476.11803 746.578872,2388.36715 696.529912,2311.64026 C648.465272,2237.11816 586.951352,2176.70675 525.437432,2115.85439 C463.482552,2055.00202 393.369912,2007.15795 318.406712,1967.91259 C216.985912,1914.77701 114.683192,1864.28718 17.2310323,1802.77338 C12.3804723,1799.68666 5.98655228,1797.92283 0.254072275,1795.49755 M9.07327228,1808.50585 C10.3961523,1808.9468 11.4985523,1809.38776 12.6009523,1810.0492 C91.3123123,1860.09807 174.433272,1903.09159 254.908472,1944.98271 C274.751672,1955.34525 294.594872,1965.48731 314.438072,1975.62937 C394.692792,2017.74097 461.718712,2065.80552 519.263992,2122.02782 L523.453112,2126.43741 C582.100792,2184.42354 642.732792,2244.39399 689.254072,2316.27033 C738.862072,2392.55627 756.500472,2482.07098 770.390712,2567.1761 C773.036472,2583.27111 775.461752,2599.5866 777.666552,2616.12257 C787.588152,2682.04596 797.730232,2749.95367 821.542072,2814.11323 C846.456312,2883.34382 876.882552,2932.73125 917.009912,2970.21278 C955.814392,3006.59191 999.689912,3034.37234 1042.24255,3061.49133 C1053.92799,3068.98763 1065.83391,3076.48394 1077.73983,3084.20073 C1165.71135,3142.18686 1215.09887,3210.53553 1232.51679,3298.06592 L1099.34687,3298.06592 C1099.12639,3297.62496 1098.90591,3297.18401 1098.68543,3296.74305 C1096.70111,3291.45154 1094.27583,3286.16003 1090.74815,3281.089 C1054.80991,3229.05581 1007.40671,3186.50325 937.294072,3142.18686 L924.506232,3134.24959 C882.174072,3107.57156 838.739512,3080.01161 801.919352,3044.73488 C752.531832,2996.22937 721.223672,2929.42406 703.144312,2833.9564 C693.663672,2782.80513 688.372152,2729.22859 683.301112,2677.63637 C679.552952,2641.6982 675.804792,2604.65763 670.954232,2568.49898 C644.276152,2379.98893 553.879352,2228.0785 401.748152,2116.95679 C280.263672,2028.54447 135.849272,2006.93747 9.07327228,1994.37014 L9.07327228,1808.50585" id="Fill-37"></path>
                    <path d="M777.732696,1005.49715 C756.566616,1005.49715 734.739096,1009.02482 712.029656,1015.41873 C639.271256,1037.24621 577.095896,1080.90117 521.755416,1133.37531 C408.428696,1240.96935 281.211736,1323.20823 142.750296,1388.02923 C102.402456,1406.76999 62.7160563,1428.81795 23.9115763,1451.96831 C13.5490163,1458.14174 5.83221628,1465.85852 0.320216275,1477.32346 L0.320216275,1795.4755 C7.15509628,1806.94044 16.4152563,1814.65723 27.2187763,1821.27161 C115.190296,1875.06863 206.248536,1922.47174 297.747736,1968.99294 C375.797656,2008.45878 448.997016,2056.74381 513.377176,2118.25762 C567.394776,2170.07032 619.428056,2223.2059 665.067416,2283.83778 C714.234456,2348.65878 742.014936,2422.9604 757.669016,2503.21497 C773.543576,2585.0129 781.480856,2669.01562 800.883096,2750.15211 C819.182936,2825.55612 847.183896,2895.88911 898.114776,2953.2138 C931.627736,2991.35677 973.077976,3019.57816 1015.18966,3046.69715 C1058.40374,3074.47758 1103.16118,3099.17129 1140.64278,3135.7709 C1182.09302,3175.89819 1212.0783,3223.3013 1227.29142,3280.18503 C1230.37814,3290.98853 1234.56726,3300.24867 1242.9455,3306.86306 L1432.77878,3306.86306 C1441.81846,3301.57155 1448.21238,3294.73668 1453.06294,3284.37414 C1465.40982,3258.13707 1487.01686,3244.24686 1511.71062,3244.24686 C1518.76598,3244.24686 1526.2623,3245.34925 1533.75862,3247.77453 C1557.1295,3254.38892 1577.41366,3266.07434 1595.27254,3282.16935 C1606.51702,3291.42949 1617.32054,3300.91011 1630.32886,3306.86306 L1864.47862,3306.86306 C1874.84118,3293.63428 1864.47862,3283.27174 1859.1871,3273.79112 C1840.4463,3239.83727 1817.51638,3208.74964 1792.38166,3180.0873 C1713.89078,3088.80875 1627.46262,3008.99514 1522.07318,2955.63908 C1497.5999,2943.5127 1473.3471,2931.16585 1448.43286,2920.36235 C1346.5711,2875.82547 1283.07286,2793.3661 1244.70934,2686.21303 C1223.32278,2626.68354 1202.1567,2566.93357 1176.8015,2509.16792 C1146.59574,2439.71685 1107.3503,2376.43921 1066.34102,2314.48445 C1008.79574,2227.39501 981.015256,2130.38399 969.550296,2026.09715 C960.510616,1941.43299 952.352856,1857.87122 947.281816,1773.42754 C940.667416,1664.29015 948.163736,1555.81419 974.180376,1449.54303 C986.747736,1396.40745 997.110296,1342.61043 994.244056,1287.49054 C990.054936,1207.45645 971.755096,1130.95003 917.517016,1071.20006 C877.169176,1026.22223 829.765976,1005.49715 777.732696,1005.49715 M777.732696,1014.09585 C828.663576,1014.09585 873.641496,1035.48237 910.902616,1076.93253 C956.762456,1127.86332 980.574296,1194.66863 985.424856,1287.9315 C988.291096,1343.27187 977.487576,1397.28937 965.581656,1447.33824 C940.667416,1549.42029 931.627736,1659.21912 938.462616,1773.8685 C943.754136,1863.16273 952.793816,1951.79553 960.731096,2026.97907 C973.518936,2142.95133 1005.48854,2238.63947 1058.8447,2319.335 C1097.64918,2377.76209 1137.77654,2441.70117 1168.42326,2512.69559 C1192.01462,2565.61069 1212.0783,2621.17155 1231.48054,2674.96857 L1236.3311,2689.29974 C1278.66326,2807.4768 1346.79158,2885.52657 1444.90518,2928.52009 C1464.74838,2937.11879 1484.3711,2946.8199 1503.55286,2956.30052 L1518.10454,2963.57634 C1610.26518,3010.31802 1695.37046,3080.87148 1785.54678,3186.04025 C1812.8863,3216.90739 1834.49334,3247.11309 1851.4703,3278.20071 C1852.5727,3279.74407 1853.6751,3281.50791 1854.7775,3283.49222 C1858.96662,3290.32709 1860.95094,3294.07524 1859.40758,3298.04388 L1632.31318,3298.04388 C1622.1711,3293.19332 1613.3519,3285.9175 1604.09174,3278.20071 L1600.78454,3275.33448 C1581.60278,3258.13707 1560.4367,3246.23117 1535.96342,3239.39631 C1527.80566,3236.75055 1519.6479,3235.42767 1511.71062,3235.42767 C1482.82774,3235.42767 1458.79542,3251.74316 1445.12566,3280.62599 C1441.59798,3288.34277 1436.74742,3293.85476 1430.13302,3298.04388 L1246.2527,3298.04388 C1241.62262,3293.63428 1238.5359,3287.46086 1235.66966,3277.98023 C1220.67702,3221.31698 1191.57366,3172.81147 1146.81622,3129.59747 C1115.72854,3099.17129 1079.56982,3076.68237 1044.73398,3054.85489 C1036.57622,3049.56338 1028.19798,3044.49235 1020.04022,3039.42132 C979.912856,3013.40473 938.021656,2985.18334 904.729176,2947.48134 C860.853656,2897.87343 830.427416,2834.59579 809.702296,2747.94731 C798.237336,2700.5442 790.741016,2651.15677 783.244696,2603.09222 C778.173656,2569.79981 773.102616,2535.18451 766.267736,2501.45113 C748.849816,2411.93642 717.982616,2339.17816 672.122776,2278.32579 C624.058136,2214.60719 568.056216,2158.3849 519.330136,2111.86371 C458.698136,2053.87758 387.483096,2004.49015 301.716376,1961.05567 C218.815896,1918.94407 122.245656,1869.11568 31.6283763,1813.77531 C21.2658163,1807.3814 14.2104563,1800.76701 9.13941628,1792.82975 L9.13941628,1479.30778 C13.5490163,1470.92955 19.7224563,1464.75612 28.5416563,1459.46461 C71.7557363,1433.44802 110.339736,1412.94342 146.498456,1395.96649 C294.661016,1326.7359 419.232216,1242.73318 527.708376,1139.76922 C589.663256,1080.90117 650.956696,1042.97868 714.675416,1024.01743 C736.502936,1017.62353 757.669016,1014.09585 777.732696,1014.09585" id="Fill-49"></path>
                    <path d="M3172.87308,1183.57851 C3110.03628,1183.57851 3057.56204,1215.76853 3006.85164,1250.38382 C2932.3294,1301.75557 2865.083,1363.26937 2796.51372,1423.23982 C2708.76268,1499.74623 2644.603,1594.33198 2597.42028,1703.24889 C2566.77356,1772.47948 2530.39436,1837.30048 2479.02252,1892.1999 C2425.00492,1949.08363 2362.60908,1988.329 2292.05548,2014.56607 C2233.4078,2036.61402 2173.21676,2051.16568 2115.451,2075.85939 C2048.42508,2104.52174 1996.17132,2147.51526 1980.29676,2227.76983 C1969.9342,2278.92109 1983.38348,2326.76516 2003.88812,2371.52251 C2052.17324,2478.23463 2106.85228,2581.1986 2175.42156,2674.46146 C2201.87916,2710.39964 2234.06924,2738.18006 2273.97612,2753.61364 C2288.30732,2759.12563 2302.41804,2761.77138 2315.86732,2761.77138 C2349.82124,2761.77138 2380.46796,2745.67637 2409.35084,2722.52601 C2439.99756,2698.27326 2461.16364,2664.98084 2482.77068,2632.12938 C2546.26892,2533.13405 2628.94892,2455.52524 2718.90476,2385.85369 C2809.963,2315.96166 2895.50924,2239.8962 2971.57484,2152.80677 C3005.0878,2114.44332 3039.70316,2077.18227 3073.87756,2040.1417 C3136.05292,1973.33638 3207.26796,1919.98032 3285.53836,1877.20728 C3310.23212,1863.75803 3333.82348,1849.42686 3357.63532,1834.21377 C3415.40108,1797.39367 3446.26828,1740.50994 3461.04044,1673.92511 C3495.87628,1515.40029 3449.355,1380.2463 3346.39084,1266.69931 C3301.19244,1216.87093 3244.74956,1184.68091 3176.84172,1183.57851 L3172.87308,1183.57851 Z M3172.87308,1192.39769 L3176.40076,1192.39769 C3237.47372,1193.50009 3292.37324,1220.3986 3339.77644,1272.43178 C3446.70924,1390.38836 3484.6318,1524.88091 3452.44172,1672.16127 C3436.34668,1743.59666 3404.1566,1794.30696 3352.78476,1826.71746 C3326.10668,1843.69439 3303.61772,1857.36412 3281.34924,1869.27002 C3199.33068,1914.24785 3127.4542,1969.58823 3067.26316,2033.96827 C3030.66348,2073.87507 2997.59148,2109.59277 2964.96044,2146.85382 C2895.9502,2226.22647 2813.71116,2301.85097 2713.83372,2379.01882 C2607.1214,2461.25771 2531.27628,2540.1894 2475.49484,2627.49931 L2472.84908,2631.24747 C2452.7854,2661.67365 2432.28076,2693.42271 2403.83884,2715.69115 C2371.86924,2741.0463 2343.86828,2752.9522 2315.86732,2752.9522 C2303.29996,2752.9522 2290.07116,2750.30644 2277.28332,2745.45589 C2241.1246,2731.56568 2209.37548,2705.76957 2182.47692,2669.16995 C2121.40396,2586.26963 2067.38636,2490.58149 2011.8254,2367.77436 C1987.5726,2314.19782 1980.51724,2271.64526 1988.89548,2229.53366 C2002.34476,2161.62595 2042.47212,2116.42763 2118.97868,2084.01714 C2151.60972,2069.90644 2185.78412,2059.10294 2219.29708,2048.51992 C2244.21132,2040.58266 2269.787,2032.42491 2295.1422,2022.72381 C2369.88492,1995.16386 2432.28076,1954.37514 2485.41644,1898.15285 C2531.27628,1849.42686 2569.41932,1788.57449 2605.35756,1706.99704 C2654.74508,1592.78862 2719.12524,1501.95103 2802.2462,1429.85421 L2828.7038,1406.70385 C2886.91052,1355.11163 2947.54252,1302.19653 3011.92268,1257.43917 C3062.4126,1223.26483 3113.123,1192.39769 3172.87308,1192.39769 L3172.87308,1192.39769 Z" id="Fill-58"></path>
                    <path d="M4491.87263,1539.47666 C4477.32095,1539.47666 4464.31263,1546.532 4450.20191,1561.96557 C4416.90943,1597.46279 4395.52287,1641.33822 4371.93151,1684.11126 C4329.81983,1760.83816 4285.50335,1836.0217 4237.43871,1908.55948 C4166.22367,2014.38968 4076.04735,2093.98281 3958.75199,2135.43297 C3928.10527,2146.01599 3899.00191,2160.56765 3871.66239,2180.19033 C3835.28319,2206.64788 3819.62911,2248.97996 3831.09407,2293.73732 C3851.59871,2375.09428 3932.29439,2441.23816 4010.56479,2441.23816 C4058.62943,2439.6948 4102.94591,2422.93835 4146.38047,2403.31567 C4207.23295,2376.19668 4268.30591,2349.07769 4334.22943,2340.47899 C4371.04959,2335.40796 4407.64927,2332.98268 4444.02847,2332.98268 C4528.03135,2332.98268 4610.71135,2347.53434 4689.86367,2384.79539 C4792.38687,2433.52137 4850.15263,2523.03609 4878.59455,2636.14211 C4891.82335,2689.49817 4902.62687,2743.07471 4918.72191,2796.21029 C4942.75423,2876.68534 5001.84287,2909.75728 5065.12063,2909.75728 C5080.99519,2909.75728 5097.09023,2907.55248 5112.96479,2903.58385 C5239.74079,2872.71671 5314.04255,2761.595 5329.91711,2637.24451 C5339.61823,2563.60433 5311.17631,2500.76765 5272.59231,2443.88391 C5197.18815,2332.10076 5110.75999,2230.01872 5031.82815,2120.88132 C4955.54207,2015.2716 4863.82239,1925.31593 4776.29183,1831.61211 C4718.74655,1769.21638 4665.39039,1703.07251 4612.69567,1636.26719 C4586.89951,1604.07717 4562.86719,1568.35948 4524.72415,1548.95728 C4512.59775,1543.00433 4502.01471,1539.47666 4491.87263,1539.47666 M4491.87263,1548.51632 C4500.03039,1548.51632 4509.51103,1551.16207 4520.75551,1556.67406 C4551.62271,1572.54859 4573.67071,1600.76998 4594.83679,1628.10945 L4605.86079,1641.99966 C4656.35071,1705.71826 4710.58879,1773.4055 4769.89791,1837.78553 C4787.75679,1856.5263 4805.39519,1875.26706 4823.47455,1894.00783 C4892.26431,1966.98657 4964.14079,2042.17011 5024.77279,2125.95235 C5057.40383,2171.37115 5092.23967,2216.34898 5125.75263,2260.00394 C5172.71487,2320.85631 5221.44095,2383.69299 5265.31647,2448.73447 C5311.83775,2517.74458 5329.03519,2575.28975 5321.31839,2636.14211 C5304.56191,2768.20938 5223.64575,2867.4252 5110.98047,2894.98515 C5095.54687,2898.95378 5080.11327,2900.93809 5065.12063,2900.93809 C5025.43423,2900.93809 4955.10111,2886.8274 4927.10015,2793.56454 C4916.73759,2758.72876 4908.35935,2722.79059 4900.20159,2688.17529 C4896.01247,2670.09597 4891.60287,2652.01664 4887.19327,2633.93732 C4855.22367,2507.60251 4791.94591,2423.37931 4693.83231,2376.85812 C4617.98719,2341.36091 4536.18911,2324.1635 4444.02847,2324.1635 C4408.97215,2324.1635 4371.71103,2326.58878 4332.90655,2331.65981 C4265.43967,2340.47899 4202.82335,2368.4799 4142.63231,2395.37841 C4102.06399,2413.67821 4057.74751,2430.87562 4010.34431,2432.41898 C3935.82207,2432.41898 3859.09503,2369.36181 3839.47231,2291.53252 C3829.10975,2250.96428 3843.22047,2211.93939 3876.95391,2187.24568 C3901.86815,2169.16635 3930.31007,2154.6147 3961.61823,2143.8112 C4074.94495,2103.68391 4167.76703,2028.2799 4244.71455,1913.41003 C4288.81055,1847.26616 4331.58367,1775.61029 4379.64831,1688.52086 L4388.90847,1671.54393 C4409.19263,1633.84192 4428.59487,1598.12423 4456.59583,1567.91852 C4468.94271,1554.24879 4479.74623,1548.51632 4491.87263,1548.51632" id="Fill-60"></path>
                    <path d="M803.352472,0.44095917 C774.690072,125.673364 704.136472,224.668697 629.614232,321.679715 C594.557912,366.87803 560.603992,413.178743 532.382552,464.109527 C515.626072,494.756189 504.381592,526.946209 500.412952,562.663901 C494.900952,610.728451 525.988632,641.154634 559.281112,657.249644 C597.203672,675.769929 638.212952,680.4 679.001752,685.030071 C770.280472,695.392612 862.882072,694.069734 952.396952,719.204407 C1002.44591,733.3151 1048.30575,757.347375 1087.33071,793.285548 C1112.90639,817.538302 1131.64719,848.846403 1147.74223,881.477382 C1195.36591,979.370318 1222.26447,1085.64148 1251.36783,1190.81024 C1269.66767,1256.0722 1283.11695,1322.65703 1289.95183,1390.78522 C1294.80239,1439.95217 1291.05423,1489.56008 1280.25071,1537.84511 C1267.24239,1594.28788 1252.24975,1650.2897 1242.10767,1707.17343 C1227.33551,1789.63279 1230.42223,1871.6512 1263.93519,1949.26001 C1296.78671,2026.42787 1366.45839,2097.42229 1448.69743,2097.42229 C1451.12271,2097.42229 1453.98895,2097.42229 1456.85519,2097.20181 C1505.14031,2094.77654 1543.06287,2070.52378 1575.91439,2036.12897 C1614.93935,1995.78121 1651.97999,1952.78769 1689.68207,1911.33752 C1746.34543,1848.9418 1812.93039,1801.09773 1885.02735,1761.41141 C1940.36783,1730.76474 1996.59023,1701.44096 2050.82831,1667.92806 C2085.00271,1646.76202 2115.86991,1619.64303 2141.88655,1587.23253 C2178.48623,1540.71134 2187.30543,1485.81192 2184.43919,1426.7234 C2180.91151,1354.40609 2160.62735,1287.15982 2134.61071,1221.67738 C2103.08207,1142.08425 2049.72591,1086.96436 1969.91215,1064.03448 C1873.34191,1035.59261 1776.99215,1006.70979 1688.57967,954.676604 C1622.21519,915.872197 1560.70127,870.232923 1503.15599,818.199741 C1392.03407,717.220091 1313.10223,589.121452 1237.91855,458.156578 C1191.39727,377.681529 1148.18319,294.781205 1109.15823,209.896565 C1078.51151,142.650292 1052.49487,73.860661 1037.28175,0.44095917 L803.352472,0.44095917 Z M810.187352,9.26014258 L1030.00591,9.26014258 C1043.67567,71.8763448 1066.38511,137.138302 1101.22095,213.644718 C1140.24591,298.529358 1183.68047,381.870642 1230.42223,462.56617 C1302.73967,588.900972 1382.99439,720.968244 1496.98255,824.593649 C1555.18927,877.508749 1618.02607,923.588983 1683.94959,962.39339 C1775.22831,1016.19041 1877.31055,1045.95515 1967.26639,1072.4127 C2041.12719,1093.79922 2094.48335,1144.95049 2126.45295,1224.98458 C2157.54063,1303.03435 2172.53327,1365.20959 2175.61999,1427.16436 C2178.92719,1493.30823 2166.13935,1542.47518 2135.05167,1581.72054 C2110.35791,1612.58769 2080.37263,1639.26572 2046.19823,1660.43176 C2006.29135,1685.12547 1964.62063,1707.83487 1924.05231,1730.10331 C1909.72111,1738.04057 1895.16943,1745.75736 1880.83823,1753.69462 C1800.36303,1797.79054 1735.76239,1847.61892 1683.06767,1905.38458 C1671.60271,1918.17239 1659.91727,1931.18069 1648.45231,1943.9685 C1622.87663,1972.63085 1596.41903,2002.17511 1569.52047,2030.17602 C1533.58223,2067.87803 1497.42351,2086.39831 1456.41423,2088.38263 C1453.76847,2088.60311 1451.12271,2088.60311 1448.69743,2088.60311 C1368.44271,2088.60311 1302.29871,2016.94725 1272.09295,1945.73234 C1241.66671,1875.39935 1234.83183,1797.79054 1250.70639,1708.71679 C1257.98223,1669.47142 1267.24239,1629.78509 1276.50255,1591.20117 C1280.69167,1574.00376 1285.10127,1556.80635 1288.84943,1539.38846 C1300.31439,1488.45768 1303.62159,1438.18833 1298.77103,1389.90331 C1292.15663,1323.75943 1279.36879,1257.83603 1259.74607,1188.60544 L1252.02927,1159.72262 C1226.01263,1064.9164 1199.33455,967.24394 1155.67951,877.729229 C1143.11215,852.153597 1123.26895,815.113027 1093.28367,786.67116 C1055.14063,751.394426 1008.39887,725.598315 954.822232,710.605703 C892.205912,693.408296 827.605272,688.557745 765.209432,683.927673 C737.208472,681.722878 708.105112,679.518082 679.883672,676.210888 C639.756312,671.580817 599.408472,666.950745 563.029272,649.312378 C540.540312,638.288399 503.499672,612.492288 509.232152,563.766299 C512.759832,531.3558 522.901912,500.268179 540.099352,468.078159 C569.202712,416.485936 603.597592,369.744264 636.449112,326.750745 C711.191832,229.960207 780.422552,132.72871 810.187352,9.26014258 L810.187352,9.26014258 Z" id="Fill-62"></path>
                    <path d="M3228.85295,2467.69571 C3224.44335,2467.69571 3220.25423,2467.91619 3215.84463,2468.35715 C3111.55759,2480.04257 3020.49935,2526.56376 2939.36271,2596.67627 C2839.92623,2682.22235 2796.49167,2801.72228 2764.30159,2927.61612 C2732.77295,3050.64373 2699.25999,3173.0099 2678.09391,3298.68327 C2677.65295,3301.32902 2676.33007,3304.19526 2675.44815,3307.06149 L3470.27855,3307.06149 C3460.13647,3272.66668 3438.74991,3245.10673 3420.67055,3216.2239 C3376.13359,3143.02468 3352.76271,3062.10867 3341.51823,2977.22403 C3333.58095,2920.3403 3327.40751,2863.23609 3329.17135,2806.13187 C3331.37615,2753.43725 3337.10863,2700.96311 3339.97487,2647.60705 C3342.17967,2592.26668 3342.17967,2537.80822 3297.64271,2495.47614 C3276.91759,2475.63297 3253.10575,2467.69571 3228.85295,2467.69571 M3228.85295,2476.51489 C3252.44431,2476.51489 3273.83087,2484.89312 3291.68975,2501.87005 C3332.25807,2540.67445 3333.58095,2590.72332 3330.93519,2647.16609 C3329.83279,2671.41885 3327.84847,2695.45112 3326.08463,2719.4834 C3324.10031,2747.92526 3321.67503,2776.80809 3320.57263,2805.69091 C3318.36783,2865.2204 3325.20271,2923.64749 3332.69903,2978.32643 C3345.48687,3074.23505 3371.94447,3153.38722 3413.17423,3220.63349 C3417.14287,3227.0274 3421.11151,3233.20083 3425.30063,3239.37426 C3437.20655,3257.89454 3449.77391,3277.07627 3457.93167,3298.24231 L2687.13359,3298.24231 C2704.77199,3193.07355 2731.89103,3088.12526 2758.12815,2986.70465 L2772.90031,2929.82092 C2803.10607,2811.2029 2844.99727,2689.49817 2945.09519,2603.29065 C3030.64143,2529.20951 3119.49487,2487.97983 3216.72655,2477.17633 C3220.69519,2476.73537 3224.66383,2476.51489 3228.85295,2476.51489" id="Fill-64"></path>
                    <path d="M2435.6541,508.1393 C2415.36994,508.1393 2395.74722,518.060881 2381.85698,537.022126 C2342.17058,589.937226 2333.57186,650.569112 2345.91874,714.728671 C2354.29698,758.383629 2391.5581,797.188036 2446.6781,797.188036 L2454.3949,797.188036 C2521.86178,797.188036 2560.2253,750.225885 2553.83138,672.617071 C2548.53986,611.544226 2524.72802,559.731523 2476.88386,522.911432 C2464.09602,512.989851 2449.76482,508.1393 2435.6541,508.1393 M2435.6541,517.178963 C2448.44194,517.178963 2460.56834,521.588555 2471.59234,530.187259 C2514.80642,563.259196 2539.72066,611.544226 2545.01218,673.278509 C2548.31938,711.421478 2540.16162,742.06814 2521.86178,762.131782 C2505.98722,779.10871 2482.83682,788.148373 2454.3949,788.148373 C2451.30818,788.368853 2449.10338,788.368853 2446.6781,788.368853 C2393.54242,788.368853 2361.57282,749.564446 2354.51746,713.185314 C2341.72962,646.38 2352.9741,590.378185 2388.91234,542.313636 C2400.81826,526.218626 2417.79522,517.178963 2435.6541,517.178963" id="Fill-72"></path>
                    <path d="M3793.61247,417.698574 C3789.42335,417.698574 3785.45471,417.698574 3781.26559,418.139533 C3748.63455,419.462411 3729.67327,439.746533 3728.12991,474.141348 C3726.14559,521.544459 3742.24063,564.537978 3752.60319,608.854375 C3768.03679,673.675373 3787.87999,736.732534 3798.24255,802.65593 C3806.84127,855.79151 3812.79423,909.14757 3813.01471,963.165068 C3813.01471,1063.2628 3811.47135,1163.58101 3817.86527,1263.67874 C3822.27487,1333.57077 3817.86527,1403.02184 3821.83391,1472.47291 C3824.25919,1519.21458 3825.80255,1567.27913 3842.55903,1611.81601 C3861.07935,1660.542 3893.26943,1684.57427 3928.32575,1684.57427 C3945.74367,1684.57427 3963.82303,1678.62132 3981.68191,1666.49494 C4005.27327,1650.39994 4024.23455,1627.24958 4037.90431,1600.13059 C4061.49567,1554.05036 4068.55103,1504.22197 4071.19679,1453.07071 C4072.51967,1421.54213 4071.19679,1390.01355 4071.19679,1343.05139 C4068.33055,1269.85217 4073.62207,1182.1013 4100.30015,1097.21666 C4131.82879,998.000843 4184.08255,911.572845 4246.47839,831.979715 C4276.02271,794.498185 4305.34655,757.457615 4334.89087,720.417045 C4345.47391,706.96779 4353.19071,691.975178 4359.80511,676.100648 C4378.10495,632.44569 4372.37247,607.311017 4326.95359,578.648671 C4311.51999,569.168049 4292.99967,564.978937 4275.36127,561.451264 C4180.11391,540.285224 4088.83519,506.331367 3998.21791,469.731756 C3932.07391,443.053727 3865.70943,417.698574 3793.61247,417.698574 M3793.61247,417.698574 L3793.61247,426.738237 C3861.52031,426.738237 3922.37279,448.786196 3994.91071,477.889501 C4076.26783,510.961439 4173.27903,547.781529 4273.37695,570.049968 C4289.47199,573.136682 4307.77183,577.546273 4322.10303,586.365457 C4362.67135,611.720609 4369.06527,630.902333 4351.64735,672.572975 C4344.15103,690.211342 4336.87519,703.660596 4327.83551,715.125535 L4319.67775,725.488075 C4292.99967,759.221452 4266.32159,792.29339 4239.42303,826.467725 C4169.08991,916.202916 4120.80479,1003.73331 4091.92191,1094.5709 C4068.55103,1167.9906 4058.62943,1251.77285 4062.59807,1343.27187 C4062.59807,1359.1464 4062.59807,1373.2571 4062.81855,1386.70635 C4063.03903,1412.0615 4063.25951,1432.34563 4062.15711,1452.62975 C4059.95231,1496.94614 4054.66079,1548.31789 4030.18751,1596.38244 C4016.51775,1623.06047 3998.43839,1644.22651 3976.39039,1659.21912 C3960.95679,1670.02262 3944.20031,1675.75509 3928.32575,1675.75509 C3895.47423,1675.75509 3867.03231,1651.50233 3850.71679,1608.72929 C3835.50367,1568.38153 3833.29887,1524.50609 3830.87359,1481.51257 L3830.43263,1472.03195 C3828.66879,1438.96001 3828.66879,1405.22664 3828.88927,1372.37518 C3828.88927,1336.65749 3829.10975,1299.61692 3826.68447,1263.0173 C3821.39295,1179.23506 3821.39295,1093.68898 3821.83391,1010.78866 L3821.83391,963.165068 C3821.61343,914.880039 3816.76287,863.287816 3807.06175,801.333052 C3799.78591,757.016656 3788.76191,713.802657 3777.51743,671.691056 C3771.78495,650.304537 3766.27295,628.697537 3761.42239,606.649579 C3758.99711,596.507518 3755.91039,585.924498 3753.26463,575.341478 C3744.22495,541.387622 3735.62623,509.418082 3736.94911,474.582307 C3737.83103,453.416267 3746.42975,428.281594 3781.70655,426.738237 L3793.61247,426.738237 L3793.61247,417.698574" id="Fill-74"></path>
                    <path d="M1393.75382,930.578185 C1357.5951,930.578185 1337.53142,955.492378 1335.98806,1003.33645 C1334.4447,1052.5034 1343.04342,1100.56795 1353.1855,1147.97106 C1372.36726,1234.17857 1402.13206,1316.41746 1422.41622,1401.96354 C1443.80278,1491.03729 1444.90518,1579.89056 1431.23542,1670.28719 C1426.38486,1697.62666 1423.51862,1725.40709 1424.8415,1753.408 C1426.60534,1800.37015 1449.53526,1826.8277 1483.48918,1826.8277 C1495.17462,1826.8277 1508.18294,1823.74099 1521.8527,1817.1266 C1545.88502,1805.66166 1568.1535,1791.11001 1589.76054,1775.67644 C1655.68406,1728.71428 1726.67862,1690.57132 1796.57078,1651.10547 C1846.61974,1623.10456 1894.4639,1591.13502 1934.1503,1547.25959 C1965.23798,1512.86477 1984.8607,1473.39892 1981.5535,1425.77533 C1984.19926,1361.83625 1959.94646,1312.00787 1921.14198,1268.13243 C1879.25078,1220.72932 1829.4223,1186.3345 1778.49142,1152.60113 C1701.98486,1101.0089 1625.4783,1049.41668 1547.64886,999.588296 C1507.5215,974.012664 1467.17366,947.334634 1420.87286,934.767297 C1410.95126,932.121542 1401.91158,930.578185 1393.75382,930.578185 M1393.75382,939.617848 C1401.02966,939.617848 1409.4079,940.940726 1418.44758,943.145522 C1460.33878,954.389981 1498.04086,978.422255 1534.42006,1001.57261 L1543.01878,1007.30508 C1621.50966,1057.35395 1698.89814,1109.60761 1773.64086,1159.87695 C1824.79222,1193.83081 1873.95926,1228.22563 1914.3071,1273.8649 C1956.41878,1321.48849 1975.15958,1369.77352 1972.7343,1425.33437 C1975.60054,1467.00502 1960.6079,1504.48655 1927.75638,1541.30664 C1884.98326,1588.26879 1832.7295,1620.45881 1792.38166,1643.1682 L1762.39638,1660.14513 C1703.08726,1693.43755 1641.57334,1728.05285 1584.46902,1768.62109 C1559.3343,1786.70041 1538.60918,1799.26775 1517.88406,1809.18933 C1505.75766,1815.14228 1494.07222,1818.00852 1483.48918,1818.00852 C1453.72438,1818.00852 1435.20406,1793.75576 1433.6607,1753.18752 C1432.5583,1728.93476 1434.54262,1703.13865 1439.83414,1671.83055 C1454.6063,1575.48097 1451.74006,1486.40722 1431.01494,1399.97922 C1421.31382,1359.41098 1409.4079,1319.06321 1398.16342,1280.25881 C1385.1551,1236.60385 1371.9263,1191.40553 1361.78422,1145.98674 C1352.30358,1101.22938 1343.2639,1053.16483 1344.80726,1003.77741 C1346.13014,961.224848 1362.44566,939.617848 1393.75382,939.617848" id="Fill-78"></path>
                    <path d="M3030.33276,2812.19506 C3023.49788,2812.19506 3016.44252,2814.62034 3008.72572,2818.80945 C2969.48028,2841.73933 2938.61308,2938.0889 2992.4102,2980.20051 C3001.89084,2987.91729 3012.2534,2991.88592 3024.15932,2992.32688 C3049.735,2990.12209 3065.60956,2970.94036 3076.63356,2950.43576 C3098.02012,2912.07231 3087.87804,2856.51146 3057.89276,2825.8648 C3048.85308,2816.82513 3039.8134,2812.19506 3030.33276,2812.19506 M3030.33276,2821.01424 C3037.38812,2821.01424 3044.44348,2824.7624 3051.49884,2832.03822 C3080.16124,2861.36201 3087.87804,2912.29279 3068.91676,2946.02617 C3055.90844,2970.05844 3041.57724,2981.96434 3023.2774,2983.5077 C3014.67868,2983.06674 3006.30044,2979.98003 2997.9222,2973.14516 C2973.22844,2954.18391 2971.24412,2923.75773 2972.567,2907.44224 C2974.7718,2873.70887 2992.85116,2838.21165 3013.13532,2826.30576 C3019.52924,2822.99856 3025.26172,2821.01424 3030.33276,2821.01424" id="Fill-82"></path>
                    <path d="M3138.4341,1386.1772 C3136.67026,1386.1772 3134.68594,1386.39768 3132.9221,1386.61816 C3095.4405,1388.82296 3060.38418,1401.83125 3027.31218,1419.02866 C2958.96338,1455.40779 2896.34706,1501.04706 2840.7861,1557.26936 C2783.24082,1615.47597 2744.43634,1687.57279 2715.99442,1765.84305 C2673.2213,1886.66586 2611.92786,1995.14181 2534.75986,2093.91667 C2517.34194,2115.96463 2504.99506,2141.31978 2493.08914,2167.33637 C2482.06514,2191.14817 2473.90738,2215.18044 2490.66386,2239.87415 C2505.6565,2262.58355 2527.48402,2269.19794 2550.8549,2269.19794 C2553.50066,2269.19794 2556.14642,2269.19794 2558.79218,2268.97746 C2606.63634,2265.89075 2650.51186,2247.81142 2691.9621,2222.89723 C2763.39762,2180.78563 2820.72242,2120.81518 2874.29906,2055.55322 C2949.04178,1964.71563 3025.9893,1875.64188 3108.44882,1792.52108 C3146.1509,1754.81907 3185.8373,1719.54233 3221.99602,1679.85601 C3246.02834,1653.39846 3264.54866,1622.97227 3276.45458,1588.1365 C3302.91218,1506.33857 3250.65842,1410.20948 3169.08082,1391.68919 C3158.93874,1389.26391 3148.79666,1386.1772 3138.4341,1386.1772 M3138.4341,1395.21686 C3146.59186,1395.21686 3154.74962,1397.42166 3163.34834,1399.62645 L3166.87602,1400.28789 C3202.3733,1408.66612 3234.3429,1433.13935 3254.1861,1467.97513 C3275.1317,1504.79522 3280.42322,1547.56826 3268.07634,1585.27027 C3257.27282,1617.68076 3239.63442,1647.66599 3215.6021,1673.90306 C3192.01074,1699.25821 3166.87602,1723.29049 3142.8437,1747.10228 C3128.95346,1759.8901 3115.50418,1772.89839 3102.27538,1786.12717 C3030.3989,1858.66495 2955.87666,1942.22671 2867.46418,2050.04123 C2820.9429,2106.70448 2762.95666,2170.64356 2687.5525,2215.40092 C2640.81074,2243.40183 2600.02194,2257.51252 2558.13074,2260.15828 C2555.70546,2260.37876 2553.50066,2260.37876 2550.8549,2260.37876 C2526.38162,2260.37876 2509.40466,2252.44149 2497.9397,2235.0236 C2484.93138,2215.6214 2489.34098,2196.88064 2501.02642,2171.08452 C2512.2709,2146.39081 2524.61778,2120.81518 2541.59474,2099.20818 C2620.96754,1997.78757 2682.48146,1886.66586 2724.15218,1768.70928 C2755.68082,1682.50176 2795.5877,1615.25549 2846.95954,1563.66327 C2900.75666,1509.42529 2962.71154,1463.34506 3031.28082,1426.96592 C3069.42386,1407.34324 3101.83442,1397.42166 3133.58354,1395.43734 C3135.34738,1395.21686 3136.67026,1395.21686 3138.4341,1395.21686" id="Fill-93"></path>
                </g>
            </g>
        </g>
    </g>
</svg>