<?xml version="1.0" encoding="UTF-8"?>
<svg width="26px" height="19px" viewBox="0 0 26 19" version="1.1" xmlns="http://www.w3.org/2000/svg" xmlns:xlink="http://www.w3.org/1999/xlink">
    <title>web/icon/social/medium/youtube</title>
    <g id="Symbols-desktop" stroke="none" stroke-width="1" fill="none" fill-rule="evenodd">
        <g id="web/navigation/footer-simple-compact" transform="translate(-351.000000, -121.000000)" fill="#FFFFFF">
            <g id="Group-3" transform="translate(39.999666, 59.228818)">
                <g id="Icons" transform="translate(224.000334, 55.771182)">
                    <g id="Group" transform="translate(84.000000, 0.000000)">
                        <g id="youtube" transform="translate(3.000000, 6.000000)">
                            <path d="M25.3448,4.48 C25.3448,4.48 25.0944,2.7152 24.3248,1.94 C23.3496,0.92 22.26,0.9152 21.76,0.8552 C18.18,0.5952 12.8048,0.5952 12.8048,0.5952 L12.7952,0.5952 C12.7952,0.5952 7.42,0.5952 3.84,0.8552 C3.34,0.9152 2.2504,0.92 1.2752,1.94 C0.5048,2.7152 0.26,4.48 0.26,4.48 C0.26,4.48 0.0048,6.5504 0.0048,8.6248 L0.0048,10.5648 C0.0048,12.6344 0.26,14.7096 0.26,14.7096 C0.26,14.7096 0.5104,16.4744 1.2752,17.2496 C2.2504,18.2696 3.5304,18.2344 4.1,18.3448 C6.1504,18.54 12.8048,18.6 12.8048,18.6 C12.8048,18.6 18.1848,18.5904 21.7648,18.3352 C22.2648,18.2752 23.3552,18.2704 24.3296,17.2504 C25.0992,16.4752 25.3496,14.7104 25.3496,14.7104 C25.3496,14.7104 25.6048,12.6408 25.6048,10.5656 L25.6048,8.6256 C25.6,6.5552 25.3448,4.4808 25.3448,4.4808 L25.3448,4.48 Z M10.1552,12.92 L10.1552,5.7248 L17.0704,9.3352 L10.1552,12.92 Z" id="Shape"></path>
                        </g>
                    </g>
                </g>
            </g>
        </g>
    </g>
</svg>